<svg xmlns="http://www.w3.org/2000/svg" width="535" height="535" viewBox="0 0 535 535" fill="none"><path d="M534.9 267.6C534.9 415.3 415.1 535 267.4 535C119.7 535 0 415.2 0 267.5C0 119.7 119.8 0 267.5 0C415.2 0.1 534.9 119.8 534.9 267.6Z" fill="white"></path><path d="M527.6 267.6C527.6 411.2 411.1 527.7 267.4 527.7C123.7 527.7 7.29993 411.2 7.29993 267.5C7.39993 123.8 123.8 7.29972 267.5 7.39972C411.2 7.39972 527.6 123.9 527.6 267.6Z" fill="#1068B2"></path><path d="M492.4 237.2C492.4 359.2 391.6 458 267.4 458C143.2 458 42.5001 359.1 42.5001 237.1C42.5001 115.1 143.2 16.1999 267.5 16.2999C391.7 16.2999 492.4 115.2 492.4 237.2Z" fill="#E1F3FC"></path><path d="M26.8002 333.8L26.6002 333.7C26.3002 332.7 25.8002 331.2 25.1002 329.2C24.4002 327.2 23.9002 325.7 23.5002 324.7L23.6002 324.5L24.6002 324.2L24.8002 324.3C25.2002 325.3 25.4002 325.8 25.5002 326C25.7002 326.3 25.9002 326.4 26.2002 326.3C26.9002 326.2 28.5002 325.8 30.8002 325L38.6002 322.4C40.9002 321.6 42.5002 321 43.1002 320.7C43.4002 320.6 43.5002 320.3 43.5002 320C43.5002 319.8 43.3002 319.2 43.0002 318.2L43.1002 318L44.1003 317.7L44.3002 317.8C44.6002 318.8 45.0002 320.3 45.7002 322.3C46.4002 324.4 47.0002 325.9 47.3002 326.8L47.2002 327L46.2002 327.3L46.0002 327.2C45.6002 326.2 45.4002 325.7 45.3002 325.6C45.1002 325.3 44.9003 325.2 44.6003 325.3C43.9003 325.4 42.3002 325.8 40.0002 326.6L32.2002 329.2C29.9002 330 28.3002 330.5 27.7002 330.9C27.4002 331.1 27.3002 331.3 27.3002 331.6C27.3002 331.8 27.5002 332.4 27.8002 333.4L27.7002 333.6L26.8002 333.8Z" fill="white"></path><path d="M43.8002 355.2L43.6002 355.1C43.2002 354.6 42.8002 354.3 42.6002 354.3C42.3002 354.3 41.3002 354.7 39.6002 355.3C38.8002 355.7 38.0002 356 37.2002 356.4C34.7002 353.7 32.8002 351.1 31.8002 348.5C30.4002 345.1 30.2002 342 31.3002 339.1C32.3002 336.2 34.5002 334.1 37.8002 332.7C42.1002 330.9 46.0002 331.5 49.4002 334.5C51.0002 335.9 52.3002 337.9 53.4002 340.5C54.1002 342 54.5002 343.6 54.8002 345.3C55.1002 346.7 55.2002 347.8 55.1002 348.7L54.9002 348.9C53.9002 349 52.4002 349.4 50.2002 350.1L50.0002 350L49.6002 349.2L49.7002 349C49.9002 348.9 50.3002 348.8 50.8002 348.5C51.4002 348.2 51.7002 348 52.0002 347.9C52.4002 347.2 52.6002 346.3 52.6002 345.1C52.5002 343.9 52.3002 342.6 51.8002 341.4C50.4002 338 48.1002 336.3 44.8002 336.1C43.3002 336 41.7002 336.3 40.0002 337C37.3002 338.1 35.4002 339.7 34.2002 341.8C33.0002 344 32.8002 346.3 33.8002 348.7C34.3002 349.9 35.1002 351 36.1002 352C36.8002 351.8 37.7002 351.4 38.9002 351C39.9002 350.6 40.4002 350.3 40.6002 350.2C40.8002 350.1 40.8002 349.8 40.7002 349.5C40.7002 349.2 40.4002 348.4 39.9002 347L40.0002 346.8L40.9002 346.4L41.1002 346.5C41.6002 347.9 42.2002 349.4 42.9002 350.8C43.3002 351.7 43.8002 353 44.6002 354.7L44.5002 354.8L43.8002 355.2Z" fill="white"></path><path d="M50.1003 373.1C48.7003 373.6 47.1003 374.2 45.4003 375.1L45.2003 375L40.1003 365C39.3003 363.3 38.6003 362.2 38.2003 361.5L38.3003 361.3L38.7003 361.1H38.9003C39.7003 361.6 40.1003 361.8 40.3003 361.8C40.5003 361.8 41.2003 361.5 42.2003 361L45.3003 359.5L52.3003 356C54.5003 354.9 55.9003 354.1 56.5003 353.6C56.7003 353.4 56.8003 353.2 56.8003 352.9C56.8003 352.7 56.5003 352.2 56.1003 351.2L56.2003 351L57.1003 350.5H57.3003C57.7003 351.5 58.4003 352.9 59.4003 354.7C60.4003 356.6 61.1003 358 61.7003 358.9V359.1L60.7003 359.5H60.5003C60.0003 358.6 59.7003 358.1 59.5003 357.9C59.3003 357.7 59.0003 357.6 58.7003 357.7C58.0003 357.9 56.5003 358.6 54.3003 359.7L46.0003 363.9C44.8003 364.5 43.6003 365.1 42.5003 365.7L43.5003 367.6C44.9003 370.3 45.8003 371.9 46.3003 372.4C46.4003 372.5 46.5003 372.5 46.6003 372.5C46.8003 372.5 47.1003 372.5 47.6003 372.3L49.5003 371.8H49.7003L50.1003 372.6V373.1Z" fill="white"></path><path d="M59.8004 389.3C58.3004 389.9 56.8004 390.6 55.2004 391.6H55.0004L49.3004 381.9C48.3004 380.3 47.6004 379.2 47.2004 378.5V378.3L47.6004 378.1H47.8004C48.6004 378.5 49.1004 378.7 49.2004 378.7C49.4004 378.7 50.0004 378.4 51.1004 377.8L54.1004 376L60.9004 372C63.1004 370.7 64.4004 369.9 65.0004 369.4C65.2004 369.2 65.3004 369 65.2004 368.7C65.2004 368.6 64.9004 368 64.4004 367V366.8L65.3004 366.3H65.5004C66.0004 367.2 66.8004 368.6 67.9004 370.5C68.9004 372.1 70.8004 375.3 73.7004 379.9V380.1L72.1004 380.8C71.6004 381 71.2004 381.2 70.8004 381.4L69.5004 382.1L69.3004 382L68.9004 381.2V381C70.1004 380.3 70.8004 379.8 70.9004 379.6C71.0004 379.4 70.8004 378.9 70.3004 378C69.9004 377.1 69.5004 376.3 69.1004 375.7C68.6004 374.9 68.1004 374.2 67.6004 373.4C66.6004 373.8 65.3004 374.6 63.6004 375.6L60.8004 377.2C61.2004 377.9 61.5004 378.5 61.8004 378.9L62.9004 380.6C63.4004 381.4 63.8004 381.8 64.0004 381.9C64.2004 382 64.9004 381.7 66.0004 381.1H66.2004L66.7004 381.9V382.1C65.7004 382.6 64.8004 383.2 63.9004 383.7C63.0004 384.2 62.0004 384.8 61.0004 385.5H60.8004L60.3004 384.6L60.4004 384.4C61.4004 383.8 62.0004 383.4 62.1004 383.1C62.2004 382.8 62.1004 382.4 61.7004 381.6C61.4004 381 61.1004 380.4 60.7004 379.8C60.3004 379.2 59.9004 378.6 59.6004 378L55.5004 380.4C54.3004 381.1 53.2004 381.8 52.1004 382.5L53.2004 384.3C54.7004 386.9 55.8004 388.4 56.4004 388.9C56.5004 389 56.6004 389 56.7004 389C56.9004 389 57.2004 388.9 57.7004 388.8L59.5004 388.1L59.7004 388.2L60.2004 389L59.8004 389.3Z" fill="white"></path><path d="M72.0004 403.3C70.6004 404.3 69.0004 404.8 67.4004 404.7C66.0004 404.7 64.6004 404.2 63.4004 403.4C62.3004 402.7 61.2003 401.6 60.2003 400.2C59.0003 398.4 58.1004 396.4 57.8004 394.1L58.0004 393.8C59.2004 393.4 60.6004 392.5 62.4004 391.3H62.6004L63.2003 392.1V392.3L62.9004 392.5C62.4004 392.9 61.8004 393.3 61.1004 394C60.8004 394.7 60.7004 395.5 60.8004 396.6C61.0004 397.7 61.4004 398.7 62.0004 399.6C63.2004 401.3 64.6003 402 66.2003 401.9C67.0003 401.8 67.8004 401.5 68.4004 401.1C69.5004 400.4 69.9004 399.4 69.8004 398.1C69.7004 397.5 69.4004 396.7 68.9004 395.6C67.7004 393.1 67.1004 391.3 67.1004 390.3C67.2004 388.7 68.0003 387.3 69.7003 386.1C71.5003 384.9 73.3004 384.5 75.1004 385C77.0004 385.5 78.8004 386.8 80.3004 389C81.7004 391 82.5003 392.8 82.7003 394.4L82.5004 394.7C81.4004 395.2 80.0004 395.9 78.6004 396.8L78.4004 396.7L77.8004 395.9V395.7C78.8004 395 79.5003 394.4 79.7003 394.2C79.9003 393.6 79.9004 393 79.8004 392.1C79.6004 391.2 79.3003 390.4 78.7003 389.7C77.9003 388.6 77.0004 387.9 75.9004 387.6C74.9004 387.4 73.9004 387.6 73.1004 388.2C72.1004 388.8 71.6003 389.7 71.7003 390.7C71.7003 391.4 72.2004 392.6 73.1004 394.5C73.2004 394.7 73.5004 395.3 73.9004 396.2C74.2004 396.8 74.4004 397.3 74.5004 397.8C74.8004 398.9 74.7004 399.9 74.4004 400.8C73.8004 401.7 73.0004 402.6 72.0004 403.3Z" fill="white"></path><path d="M74.1005 417.4H73.9005C73.3005 416.5 72.3005 415.3 71.0005 413.6C69.7005 411.9 68.6005 410.7 67.9005 410V409.8L68.7004 409.2H68.9005C69.6005 410 70.0004 410.4 70.2004 410.5C70.4004 410.7 70.7005 410.7 71.0005 410.5C71.7005 410.1 73.0005 409.2 74.9005 407.7L81.4005 402.6C83.3005 401.1 84.5005 400.1 85.1005 399.5C85.3005 399.3 85.3004 399 85.2004 398.7C85.2004 398.5 84.8004 398 84.2004 397.2V397L85.0005 396.3L85.2004 396.4C85.7004 397.2 86.7005 398.5 88.1005 400.2C89.5005 401.9 90.5004 403.1 91.2004 403.9V404.1L90.4005 404.7H90.2004C89.5004 403.9 89.1005 403.5 88.9005 403.4C88.7005 403.2 88.4005 403.2 88.1005 403.3C87.4005 403.7 86.1004 404.6 84.2004 406.1L77.7004 411.2C75.7004 412.7 74.5005 413.7 74.0005 414.3C73.8005 414.5 73.8005 414.8 73.9005 415.1C74.0005 415.2 74.3005 415.8 74.9005 416.6V416.8L74.1005 417.4Z" fill="white"></path><path d="M91.0003 436H90.8003C89.3003 434.3 88.3003 433.3 88.0003 432.9C86.7003 431.5 85.5003 430.2 84.3003 429.1V428.9L85.0003 428.2H85.2003L86.2003 429.2C86.6003 429.6 87.0003 429.7 87.2003 429.4C87.4003 429.2 87.6003 428.8 88.0003 428.1L89.6003 425C88.7003 423.9 87.7003 422.9 86.7003 421.8C86.2003 421.2 85.3003 420.3 84.2003 419.2L82.3003 420C80.9003 420.6 80.1003 421 79.8003 421.3C79.5003 421.5 79.5003 421.9 79.8003 422.3C80.0003 422.5 80.3003 422.9 80.8003 423.5V423.7L80.1003 424.4H79.9003C78.7003 423 77.8003 422.1 77.5003 421.7C77.2003 421.4 76.5003 420.6 75.3003 419.4V419.2L76.0003 418.5H76.2003C77.0003 419.2 77.6003 419.6 78.0003 419.5C78.4003 419.4 80.6003 418.7 84.6003 417.2L94.8003 413.4C95.6003 413.1 96.8003 412.6 98.4003 412L99.9003 413.6L91.1003 432.6C90.8003 433.3 90.7003 433.8 90.8003 434C90.9003 434.3 91.2003 434.7 91.6003 435.2V435.4L91.0003 436ZM90.5003 423.2L94.3003 415.3L86.1003 418.4C86.6003 419 87.4003 419.9 88.3003 420.8C89.2003 421.8 89.9003 422.6 90.5003 423.2Z" fill="white"></path><path d="M122.6 441.1C121.2 442.7 119.6 443.5 117.7 443.5C115.8 443.5 114.2 442.9 112.8 441.7C112.3 441.3 111.9 440.9 111.5 440.3C111.6 440 111.7 439.6 111.8 439.1H112.3C112.5 439.5 112.8 439.8 113.1 440C113.9 440.7 114.8 440.9 115.7 440.8C116.7 440.7 117.6 440.1 118.5 439C120.4 436.8 120.3 434.9 118.3 433.2C118 433 117.5 432.7 116.7 432.2C116.5 432.3 115.3 433.6 113.3 435.9L107.9 442.1C106.3 444 105.3 445.2 104.9 445.9C104.7 446.2 104.7 446.4 104.9 446.7C104.9 446.8 105.5 447.3 106.4 448.2V448.4L105.7 449.2H105.5C104.5 448.2 103.2 447.1 101.7 445.9C100 444.5 98.8004 443.5 98.0004 442.9V442.7L98.7003 441.9H98.9004C99.8004 442.5 100.2 442.9 100.4 442.9C100.7 443 101 443 101.2 442.8C101.8 442.3 102.9 441.1 104.5 439.3L109.8 433.1C111.4 431.3 112.4 430 112.8 429.3C113 429.1 113 428.8 112.8 428.5C112.7 428.4 112.3 427.9 111.5 427.2V427L112.2 426.2H112.4C113.1 426.9 114.3 427.9 115.9 429.3C116.6 429.9 117.5 430.6 118.8 431.7C120.1 432.7 120.8 433.3 121 433.5C123.2 435.3 124.1 437.1 123.8 438.7C123.8 439.4 123.3 440.3 122.6 441.1Z" fill="white"></path><path d="M130.4 467.2H130.2C130.2 467.2 130 467 129.7 466.8C128.6 466 127.9 465.4 127.6 465.2C127.1 464.9 126.4 464.5 125.4 463.8C125.5 463.6 125.6 463.1 125.6 462.4L126.2 455L126.3 451.9C126.3 451.5 126.2 451.1 126.1 450.6L126.6 450.3C126.8 450.5 126.9 450.5 127 450.6C127.8 451.1 128.6 451.5 129.2 451.6C129.8 451.6 130.5 451.5 131.3 451.2C132.1 450.9 132.8 450.3 133.3 449.5C134.3 448.1 134.5 446.8 133.7 445.5C133.3 444.9 132.7 444.3 131.7 443.6C131.3 443.3 130.8 443 130.4 442.8C129.7 443.6 128.7 444.9 127.2 446.9L122.5 453.5C121.1 455.5 120.2 456.8 119.9 457.5C119.8 457.8 119.8 458 120 458.3C120.1 458.4 120.6 458.8 121.4 459.5V459.7L120.8 460.5H120.6C119.8 459.9 118.5 458.9 116.7 457.7C114.9 456.4 113.5 455.6 112.7 455L112.6 454.8L113.2 453.9H113.4C114.3 454.4 114.9 454.7 115 454.8C115.3 454.9 115.5 454.8 115.8 454.6C116.3 454.1 117.3 452.8 118.7 450.8L123.5 444.1C124.9 442.1 125.8 440.8 126.1 440.1C126.2 439.8 126.2 439.6 126 439.3C125.9 439.2 125.4 438.8 124.6 438.1L124.5 437.9L125.1 437H125.3C126.1 437.6 127.4 438.6 129.2 439.8C130.3 440.5 131.1 441.1 131.8 441.5C133.1 442.3 134.1 443 134.7 443.4C136.2 444.4 137.2 445.3 137.7 446C138.4 447 138.6 448.1 138.3 449.1C138.2 449.6 137.9 450.2 137.5 450.7C135.9 453 133.4 453.7 130.1 452.8C130 453.8 130 454.9 129.9 455.9L129.7 460.3C129.6 462.8 129.7 464.4 129.9 464.9C130 465.1 130.2 465.4 130.6 465.6V465.8L130.4 467.2Z" fill="white"></path><path d="M149.2 472C148.3 473.2 147.3 474.6 146.3 476.3H146.1L136.3 470.6C134.7 469.7 133.5 469 132.8 468.7L132.7 468.5L132.9 468.1L133.1 468C134 468 134.5 467.9 134.6 467.8C134.8 467.7 135.2 467.1 135.8 466.1L137.6 463.1L141.6 456.4C142.8 454.3 143.6 452.9 143.8 452.2C143.9 451.9 143.9 451.6 143.6 451.4C143.5 451.3 143 450.9 142.1 450.4V450.2L142.6 449.3H142.8C143.7 449.9 145.1 450.7 147 451.8C148.7 452.8 151.9 454.6 156.7 457.2L156.8 457.4L155.7 458.8C155.4 459.3 155.1 459.6 154.9 459.9L154.1 461.1L153.9 461.2L153.1 460.7L153 460.5C153.7 459.3 154 458.5 154 458.3C154 458.1 153.6 457.7 152.7 457.1C151.9 456.6 151.2 456.1 150.5 455.7C149.7 455.3 148.9 454.8 148.1 454.5C147.4 455.4 146.7 456.6 145.7 458.3L144.1 461C144.8 461.5 145.4 461.8 145.8 462.1L147.6 463.1C148.4 463.6 148.9 463.8 149.1 463.7C149.3 463.6 149.8 463.1 150.5 462H150.7L151.6 462.5V462.7C151 463.7 150.5 464.6 150 465.4C149.5 466.3 148.9 467.3 148.3 468.4L148.1 468.5L147.2 468V467.8C147.8 466.8 148.1 466.1 148 465.8C148 465.5 147.6 465.2 146.9 464.7C146.4 464.3 145.8 464 145.2 463.7C144.5 463.3 143.9 463 143.3 462.7L140.9 466.8C140.2 468 139.6 469.1 139 470.2L140.9 471.2C143.5 472.7 145.2 473.5 145.9 473.7C146 473.7 146.1 473.7 146.2 473.7C146.3 473.6 146.6 473.4 146.9 473.1L148.2 471.6L148.4 471.5L149.2 472V472Z" fill="white"></path><path d="M166.8 478.2C166.1 479.7 165 480.9 163.5 481.6C162.2 482.3 160.9 482.6 159.4 482.5C158 482.4 156.5 482 155 481.3C153 480.4 151.3 479.1 149.8 477.3V476.9C150.6 476 151.5 474.5 152.4 472.5L152.6 472.4L153.5 472.8L153.6 473L153.5 473.3C153.2 473.8 153 474.5 152.7 475.5C152.7 476.2 153.1 477 153.8 477.8C154.5 478.7 155.3 479.3 156.3 479.8C158.1 480.7 159.8 480.6 161.1 479.7C161.8 479.2 162.3 478.6 162.6 477.9C163.2 476.7 163.1 475.6 162.3 474.6C161.9 474.1 161.2 473.6 160.2 472.9C157.9 471.4 156.5 470.1 155.9 469.1C155.1 467.7 155.2 466 156.1 464.2C157 462.3 158.4 461.1 160.2 460.6C162.1 460.1 164.3 460.3 166.8 461.5C169 462.5 170.6 463.7 171.6 465L171.5 465.4C170.8 466.4 170 467.7 169.2 469.2L169 469.3L168.1 468.9L168 468.7C168.5 467.5 168.8 466.8 168.9 466.4C168.8 465.8 168.5 465.2 167.9 464.6C167.3 463.9 166.6 463.4 165.7 463C164.4 462.4 163.3 462.3 162.2 462.6C161.2 462.9 160.5 463.5 160 464.5C159.5 465.6 159.5 466.5 160 467.4C160.3 468 161.4 468.8 163.1 470C163.3 470.1 163.8 470.5 164.6 471.1C165.1 471.5 165.5 471.8 165.9 472.2C166.7 473 167.1 473.9 167.3 474.8C167.6 475.9 167.4 477 166.8 478.2Z" fill="white"></path><path d="M185.7 485.6C184.8 488 182.9 489.4 180 489.9C178.6 490.1 176.9 489.9 175.1 489.2C174.5 489 174 488.8 173.7 488.7L170.2 487.3C168.9 486.9 168 486.5 167.3 486.3L167.2 486.2L167.4 485.8L167.5 485.7C168.4 485.5 168.9 485.4 169 485.3C169.2 485.1 169.4 484.5 169.9 483.4L171.2 480.2L174 472.9C174.9 470.6 175.4 469.1 175.5 468.4C175.5 468.1 175.5 467.9 175.2 467.7C175.1 467.6 174.5 467.3 173.5 466.9L173.4 466.7L173.8 465.7L174 465.6C174.8 466 176.3 466.5 178.4 467.3C179.7 467.8 181 468.2 182.1 468.6C183 468.9 183.7 469.1 184.3 469.3C187 470.3 188.6 471.6 189 473.1C189.2 473.9 189.1 474.8 188.8 475.6C188.3 477 187.3 477.9 185.9 478.4C185.2 478.6 184.6 478.8 183.9 478.8C183.2 478.8 182.4 478.7 181.5 478.6C185.5 480.2 186.9 482.5 185.7 485.6ZM181.1 484.4C182.2 481.5 181.2 479.5 178.1 478.3C177.7 478.2 177.3 478 176.7 477.9L174.2 484.6C173.9 485.3 173.7 486 173.5 486.7C173.9 486.9 174.4 487.2 175.1 487.4C176.5 487.9 177.7 487.9 178.8 487.3C179.8 486.8 180.5 485.8 181.1 484.4ZM184.1 474.5C184.9 472.4 184.2 470.9 182 470C181.3 469.7 180.6 469.5 180.1 469.4C179.7 470.4 179.3 471.3 179 472.2L177.5 476.2C177.7 476.3 178.2 476.5 178.8 476.7C180.6 477.3 181.9 477.2 182.9 476.3C183.4 475.9 183.8 475.3 184.1 474.5Z" fill="white"></path><path d="M195.7 495.7L195.5 495.8C194.5 495.4 193 494.9 190.9 494.3C188.8 493.7 187.3 493.2 186.3 493L186.2 492.8L186.5 491.8L186.7 491.7C187.7 491.9 188.3 492.1 188.5 492.1C188.8 492.1 189.1 492 189.2 491.7C189.6 491 190.1 489.5 190.8 487.2L193.2 479.4C193.9 477.1 194.3 475.5 194.4 474.8C194.5 474.5 194.3 474.2 194.1 474.1C194 474 193.4 473.8 192.4 473.4L192.3 473.2L192.6 472.2L192.8 472.1C193.7 472.4 195.3 473 197.4 473.6C199.5 474.2 201 474.7 202 474.9L202.1 475L201.8 476L201.6 476.1C200.6 475.9 200 475.8 199.8 475.7C199.5 475.7 199.3 475.8 199.1 476.1C198.8 476.8 198.2 478.3 197.5 480.6L195.1 488.4C194.4 490.8 194 492.3 193.9 493C193.8 493.3 194 493.5 194.3 493.7C194.4 493.8 195 494 196 494.4L196.1 494.6L195.7 495.7Z" fill="white"></path><path d="M222 479.8C221.7 480.5 221.4 481.3 221.3 482.1L220.7 484.6L220.5 484.7L219.5 484.5L219.4 484.3C219.7 483 219.8 482.2 219.8 482C219.8 481.6 219.5 481.3 219 481.1C218.8 481 217.9 480.8 216.1 480.4L214.1 480C214 480.3 213.6 481.7 213.1 484.2L211.1 492.7C210.5 495 210.2 496.6 210.2 497.4C210.2 497.7 210.3 497.9 210.6 498.1C210.7 498.2 211.3 498.4 212.3 498.7L212.4 498.8L212.2 499.8L212 499.9C211 499.6 209.5 499.2 207.4 498.7C205.2 498.2 203.7 497.9 202.7 497.7L202.6 497.5L202.8 496.5L203 496.4C204 496.6 204.7 496.7 204.8 496.7C205.1 496.7 205.3 496.5 205.4 496.3C205.7 495.6 206.1 494.1 206.7 491.7L208.7 483.2C209.3 480.7 209.6 479.3 209.7 479L207.5 478.5C205.7 478.1 204.6 477.9 204.3 477.9C204.1 477.9 204 478 203.9 478C203.8 478.2 203.6 478.5 203.4 478.9C203.2 479.4 203 480 202.9 480.5L202.7 480.6L201.7 480.4L201.6 480.2L202.2 477.6C202.4 476.9 202.5 476.1 202.5 475.3L202.6 475.2C203.2 475.5 205.4 476 209.1 476.9L215.2 478.3C218.7 479.1 220.9 479.6 221.8 479.7L222 479.8Z" fill="white"></path><path d="M236.4 498.8C236 500.3 235.6 501.9 235.2 503.8L235 503.9L223.8 502C221.9 501.7 220.6 501.5 219.8 501.5L219.7 501.3L219.8 500.9L219.9 500.7C220.7 500.4 221.2 500.1 221.3 500C221.4 499.8 221.6 499.2 221.8 498L222.4 494.6L223.7 486.9C224.1 484.5 224.3 482.9 224.3 482.1C224.3 481.8 224.1 481.6 223.9 481.5C223.8 481.4 223.2 481.3 222.1 481.1L222 480.9L222.2 479.9L222.3 479.8C223.3 480 224.9 480.3 227.1 480.7C229 481 232.7 481.6 238.1 482.3L238.3 482.5L237.8 484.1C237.7 484.6 237.5 485.1 237.4 485.5L237.1 486.9L236.9 487.1L236 486.9L235.9 486.7C236.1 485.3 236.2 484.5 236 484.3C235.9 484.2 235.4 484 234.4 483.7C233.4 483.4 232.6 483.2 231.8 483.2C230.9 483 230 482.9 229.1 482.9C228.8 483.9 228.5 485.4 228.2 487.3L227.7 490.4C228.5 490.6 229.2 490.7 229.7 490.8L231.7 491.1C232.7 491.2 233.2 491.2 233.3 491.1C233.5 490.9 233.7 490.3 233.9 489.1L234.1 489L235 489.1L235.1 489.3C234.9 490.4 234.7 491.5 234.5 492.4C234.3 493.4 234.2 494.6 234 495.8L233.8 495.9L232.8 495.8L232.7 495.6C232.9 494.4 232.9 493.7 232.8 493.5C232.7 493.2 232.2 493 231.4 492.8C230.7 492.6 230.1 492.5 229.4 492.4C228.7 492.3 227.9 492.2 227.3 492.1L226.5 496.8C226.3 498.1 226.1 499.4 225.9 500.7L228 501C231 501.5 232.9 501.7 233.6 501.5C233.7 501.5 233.8 501.4 233.9 501.4C234 501.3 234.2 501 234.3 500.5L235 498.7L235.2 498.5L236.1 498.7L236.4 498.8Z" fill="white"></path><path d="M259 506.2L258.9 506.3C258.8 506.3 258.6 506.3 258.3 506.2C256.9 506 256 505.9 255.6 505.9C255.1 505.9 254.2 505.8 253.1 505.8C253.1 505.6 252.9 505.1 252.6 504.5L249.3 497.8L247.8 495C247.6 494.7 247.3 494.3 247 494L247.2 493.5C247.4 493.5 247.6 493.5 247.8 493.5C248.8 493.6 249.6 493.5 250.2 493.3C250.8 493.1 251.3 492.6 251.8 491.9C252.3 491.2 252.6 490.4 252.7 489.4C252.9 487.7 252.3 486.4 251.1 485.7C250.5 485.4 249.6 485.1 248.4 485C247.9 484.9 247.4 485 246.9 485C246.7 486 246.5 487.7 246.3 490.1L245.6 498.1C245.4 500.5 245.3 502.1 245.4 502.9C245.4 503.2 245.6 503.4 245.9 503.5C246.1 503.6 246.6 503.7 247.7 503.8L247.8 504L247.7 505L247.4 505.2C246.4 505.1 244.8 504.9 242.6 504.7C240.4 504.5 238.8 504.4 237.8 504.3L237.7 504.2L237.8 503.2L238 503C239.1 503 239.7 503 239.8 503C240.1 503 240.3 502.8 240.4 502.5C240.6 501.8 240.8 500.2 241 497.8L241.8 489.7C242 487.2 242.1 485.7 242.1 484.9C242.1 484.6 241.9 484.4 241.6 484.3C241.4 484.3 240.9 484.2 239.8 484L239.6 483.8L239.7 482.8L239.9 482.7C240.9 482.9 242.5 483 244.7 483.2C246 483.3 247 483.4 247.8 483.4C249.4 483.5 250.6 483.5 251.3 483.6C253.1 483.8 254.4 484.1 255.2 484.5C256.3 485 257 485.8 257.3 486.9C257.4 487.4 257.4 488 257.4 488.7C257.1 491.4 255.4 493.3 252.1 494.2C252.5 495.1 253 496 253.5 496.9L255.6 500.8C256.8 503.1 257.6 504.4 258.1 504.7C258.3 504.9 258.6 505 259.1 505L259.2 505.2L259 506.2Z" fill="white"></path><path d="M270.6 506.5L270.4 506.7C269.4 506.6 267.8 506.5 265.6 506.4C263.5 506.3 261.9 506.3 260.8 506.3L260.6 506.1L260.7 505.1L260.9 504.9C262 504.9 262.6 504.9 262.7 504.8C263 504.7 263.2 504.5 263.3 504.3C263.5 503.6 263.6 502 263.7 499.5L264 491.4C264.1 489 264.1 487.4 264 486.6C264 486.3 263.8 486.1 263.5 486C263.3 485.9 262.7 485.9 261.7 485.8L261.5 485.6L261.6 484.5L261.8 484.3C262.8 484.4 264.4 484.5 266.6 484.6C268.8 484.7 270.4 484.7 271.4 484.7L271.6 484.9V485.9L271.4 486.1C270.3 486.1 269.7 486.2 269.6 486.2C269.3 486.3 269.1 486.4 269.1 486.7C269 487.4 268.8 489 268.7 491.5L268.4 499.6C268.3 502 268.3 503.7 268.4 504.4C268.4 504.7 268.6 504.9 268.9 505C269.1 505.1 269.7 505.1 270.7 505.2L270.8 505.3L270.6 506.5Z" fill="white"></path><path d="M295.9 506.3L295.8 506.4C293.5 506.4 292.1 506.4 291.6 506.4C289.7 506.4 287.9 506.5 286.3 506.6L286.2 506.5V505.5L286.3 505.3L287.6 505.2C288.2 505.2 288.5 505 288.5 504.6C288.5 504.4 288.3 503.9 288 503.2L286.7 500C285.3 500 283.8 500 282.3 500C281.5 500 280.3 500.1 278.7 500.1L278 502C277.5 503.5 277.3 504.3 277.3 504.7C277.3 505.1 277.5 505.3 278.1 505.4C278.4 505.5 278.9 505.5 279.7 505.5L279.9 505.7V506.6L279.8 506.7C277.9 506.7 276.6 506.7 276.1 506.7C275.7 506.7 274.6 506.8 272.9 506.8L272.7 506.7V505.7L272.8 505.5C273.9 505.4 274.5 505.2 274.8 504.8C275 504.4 275.9 502.3 277.4 498.3L281.3 488.2C281.6 487.4 282 486.2 282.6 484.6L284.8 484.5L293.5 503.6C293.8 504.4 294.1 504.7 294.4 504.8C294.7 504.9 295.2 505 295.9 504.9L296 505.1L295.9 506.3ZM285.9 498.2L282.4 490.2L279.4 498.3C280.2 498.3 281.3 498.3 282.7 498.3C283.9 498.2 285 498.2 285.9 498.2Z" fill="white"></path><path d="M319.6 482.9L319.5 483C318.5 483.2 317.8 483.3 317.7 483.4C317.4 483.5 317.2 483.7 317.2 484C317.2 484.8 317.3 486.3 317.6 488.8L318.4 495C319 499.6 319.4 502.6 319.7 503.9L319.5 504.1C318.3 504 317.4 504 316.8 504C313.6 501.3 308.2 496.2 300.5 488.9L301.7 498.9C302 501.3 302.3 502.9 302.5 503.6C302.6 503.9 302.8 504.1 303.1 504.1C303.3 504.2 303.9 504.1 304.9 504.1L305 504.2L305.1 505.2L305 505.4C303.8 505.5 302.7 505.6 301.7 505.7C300.5 505.9 299.4 506 298.2 506.2L298 506.1L297.9 505L298 504.8C299 504.6 299.6 504.6 299.8 504.5C300.1 504.4 300.2 504.2 300.2 503.9C300.2 503.2 300.1 501.6 299.8 499.1L298.8 491C298.5 488.6 298.2 487 298 486.3C297.9 486 297.7 485.8 297.4 485.8C297.2 485.8 296.6 485.8 295.6 485.9L295.4 485.8L295.3 484.8L295.5 484.6C296.5 484.6 297.4 484.5 298.3 484.4C299.7 484.2 300.8 484.1 301.8 483.9C306.1 488.3 311.2 493.1 316.9 498.1L315.8 489.1C315.5 486.7 315.2 485.1 315 484.4C314.9 484.1 314.7 483.9 314.4 483.9C314.2 483.9 313.6 483.9 312.6 484L312.4 483.9L312.3 482.9L312.4 482.7C313.6 482.6 314.6 482.5 315.7 482.4C317 482.2 318.2 482 319.3 481.9L319.4 482L319.6 482.9Z" fill="white"></path><path d="M346.6 497.5L346.5 497.7C344.2 498.1 342.9 498.5 342.4 498.6C340.5 499.1 338.8 499.5 337.2 499.9L337 499.7L336.8 498.8L336.9 498.6L338.2 498.2C338.7 498 338.9 497.8 338.9 497.4C338.9 497.2 338.6 496.7 338.1 496.1L336.1 493.2C334.7 493.5 333.3 493.8 331.8 494.2C331 494.4 329.8 494.7 328.3 495.1L328.1 497.1C327.9 498.6 327.9 499.5 328 499.9C328.1 500.3 328.4 500.4 328.9 500.4C329.2 500.4 329.7 500.3 330.5 500.2L330.7 500.3L330.9 501.3L330.8 501.5C328.9 501.9 327.7 502.1 327.2 502.3C326.8 502.4 325.7 502.7 324.1 503.1L323.9 503L323.7 502L323.8 501.8C324.8 501.5 325.4 501.1 325.6 500.7C325.7 500.3 326.1 498 326.7 493.8L328.3 483.1C328.4 482.3 328.6 481 328.8 479.3L331 478.8L343.6 495.6C344.1 496.2 344.5 496.5 344.7 496.6C345.1 496.7 345.6 496.6 346.2 496.4L346.4 496.5L346.6 497.5ZM335 491.7L329.9 484.6L328.7 493.2C329.5 493 330.6 492.8 332 492.5C333.2 492.2 334.2 491.9 335 491.7Z" fill="white"></path><path d="M374.4 484.2L374.3 485.9C372.7 487.8 370.7 489.3 368.1 490.3C363.1 492.3 358.9 491.9 355.6 489.1C354.1 487.8 352.9 486.2 352.1 484.2C350.8 481.1 350.9 478.2 352.2 475.4C353.6 472.6 356.1 470.5 359.9 469C362.2 468 364.7 467.6 367.3 467.5L367.5 467.6C367.7 469 368.2 470.7 368.8 472.5L368.7 472.7L367.8 473L367.6 472.9C367.1 471.8 366.7 471 366.5 470.6C364.7 469.7 362.7 469.8 360.5 470.7C358.1 471.6 356.6 473.1 355.9 475.1C355.1 477.1 355.3 479.4 356.3 481.9C357.7 485.3 359.9 487.4 363.1 488.3C364.8 488.7 366.7 488.6 368.8 487.7C370.7 486.9 372.4 485.7 373.8 484L374.4 484.2Z" fill="white"></path><path d="M387.5 457L387.4 457.2C386.3 457.8 385.9 458.4 386.1 459C386.2 459.4 386.5 460.1 387.1 461.2C387.5 462 388.1 463.1 388.9 464.6L391.2 468.7C392.7 471.4 393.2 473.6 392.8 475.3C392.2 477.6 390.7 479.4 388 480.8C385.6 482.1 383.5 482.7 381.8 482.6C380.3 482.6 379 482 378 481C377.3 480.4 376.1 478.3 374.3 475.1L372.4 471.6C371.2 469.4 370.4 468.1 369.9 467.5C369.7 467.3 369.5 467.2 369.2 467.2C369 467.2 368.5 467.5 367.5 467.9L367.3 467.8L366.8 466.9L366.9 466.7C367.8 466.3 369.2 465.6 371.1 464.5C373.1 463.5 374.5 462.7 375.2 462.1L375.4 462.2L375.9 463.1L375.8 463.3C374.9 463.9 374.4 464.2 374.3 464.3C374.1 464.5 374 464.8 374.1 465.1C374.3 465.8 375 467.3 376.2 469.4L377.7 472.2C379.6 475.6 380.9 477.6 381.6 478.2C383 479.4 385 479.3 387.4 478C389 477.1 390 476.1 390.5 474.8C390.7 474.2 390.8 473.7 390.8 473.2C390.8 472.7 390.6 472.1 390.2 471.2C389.9 470.4 389.5 469.7 389.1 468.9L387.5 466.1C386.2 463.7 385.3 462.1 384.8 461.3C384.3 460.5 384 460 383.8 459.8C383.6 459.7 383.4 459.6 383.1 459.7C382.8 459.7 382.2 460 381.3 460.4L381.1 460.3L380.6 459.4V459.2C381.4 458.8 382.3 458.4 383.1 457.9C383.7 457.6 385 456.9 386.7 455.9L386.9 456L387.5 457Z" fill="white"></path><path d="M423.2 456.8V457C422.3 457.5 421 458.5 419.3 459.7C417.5 461 416.2 462 415.5 462.6H415.3L414.7 461.8V461.6C415.5 460.9 416 460.5 416.1 460.4C416.3 460.1 416.4 459.9 416.2 459.6C415.8 458.9 415 457.6 413.5 455.6L407.3 447.2L408.7 454.9C408.8 455.3 409.1 456.9 409.7 459.6L411.1 466.2L410.3 466.8C409.1 466.1 407.6 465.2 405.6 464.2L401.1 461.8L392.8 457.4L399.2 466C400.7 468 401.7 469.2 402.2 469.8C402.4 470 402.7 470 403 470C403.2 469.9 403.7 469.6 404.6 469H404.8L405.4 469.8V470C404.4 470.6 403.5 471.3 402.6 471.9C401.6 472.6 400.7 473.3 399.8 474.1H399.6L399 473.3V473.1C399.8 472.4 400.3 472 400.4 471.9C400.6 471.7 400.6 471.4 400.5 471.1C400.2 470.4 399.3 469.1 397.8 467.1L392.9 460.5C391.5 458.5 390.4 457.3 389.9 456.8C389.7 456.6 389.4 456.5 389.1 456.6C389 456.7 388.4 457 387.5 457.5H387.3L386.7 456.7L386.8 456.5C387.7 455.9 388.8 455.2 390.2 454.2C391.2 453.5 392.1 452.8 392.8 452.2C393.5 452.6 394.6 453.2 396 454L398 455.1L408.2 460.5L407.2 455.3L405.5 446.8C405.3 445.8 405 444.7 404.7 443.6C405.7 443 406.3 442.5 406.7 442.3C408.4 441.2 409.6 440.2 410.4 439.5H410.6L411.2 440.4L411.1 440.6C410.3 441.3 409.8 441.6 409.7 441.8C409.5 442.1 409.5 442.3 409.6 442.6C409.9 443.3 410.8 444.6 412.3 446.6L417.2 453.2C418.7 455.2 419.7 456.4 420.2 456.9C420.4 457.1 420.7 457.1 420.9 457C421.1 457 421.6 456.6 422.5 456.1L422.8 456.2L423.2 456.8Z" fill="white"></path><path d="M433.2 437.9C435 439.8 435.5 442.1 434.6 444.8C434.2 446.2 433.2 447.5 431.8 448.8C431.3 449.2 431 449.6 430.6 449.9L427.8 452.3C426.8 453.2 426.1 453.9 425.6 454.4H425.4L425.1 454.1V453.9C425.3 453.1 425.4 452.5 425.4 452.4C425.4 452.2 424.9 451.6 424.1 450.8L421.8 448.2L416.4 442.5C414.7 440.7 413.6 439.6 413 439.1C412.8 438.9 412.5 438.9 412.2 439C412 439.1 411.6 439.4 410.8 440.1H410.6L409.9 439.3V439.1C410.6 438.5 411.8 437.5 413.5 435.9C414.6 434.9 415.5 434 416.3 433.3C416.9 432.7 417.5 432.1 418 431.7C420.1 429.7 422 429 423.5 429.3C424.3 429.5 425 429.9 425.7 430.6C426.7 431.7 427.1 433 426.9 434.5C426.8 435.2 426.7 435.8 426.4 436.4C426.1 437 425.7 437.7 425.2 438.4C428.2 435.6 431 435.5 433.2 437.9ZM422.5 434.3C420.9 432.6 419.3 432.6 417.5 434.2C416.9 434.7 416.4 435.2 416.1 435.7C416.8 436.5 417.5 437.3 418.1 437.9L421 441C421.2 440.9 421.6 440.6 422.1 440.1C423.5 438.9 424 437.6 423.6 436.3C423.5 435.6 423.1 434.9 422.5 434.3ZM430.1 441.4C428 439.1 425.7 439.1 423.3 441.3C423 441.6 422.7 441.9 422.3 442.3L427.2 447.5C427.7 448.1 428.3 448.6 428.8 449.1C429.2 448.9 429.6 448.5 430.2 448C431.3 447 431.8 445.9 431.7 444.7C431.7 443.6 431.1 442.5 430.1 441.4Z" fill="white"></path><path d="M447.8 424.9C448.8 426.1 450 427.3 451.4 428.6V428.8L443.7 437C442.4 438.4 441.5 439.4 441.1 440H440.9L440.6 439.7L440.5 439.5C440.7 438.6 440.7 438.1 440.7 438C440.6 437.8 440.1 437.3 439.3 436.5L436.7 434.1L430.8 428.8C429 427.1 427.8 426.1 427.1 425.7C426.9 425.5 426.6 425.5 426.3 425.7C426.1 425.7 425.7 426.2 425 426.9H424.8L424 426.2V426C424.8 425.3 425.9 424.1 427.3 422.5C428.7 421.1 431.1 418.3 434.8 414.3H435L436.2 415.6C436.6 416 436.9 416.3 437.1 416.6L438.1 417.6V417.8L437.5 418.5H437.3C436.3 417.6 435.6 417.1 435.4 417.1C435.2 417.1 434.7 417.4 434 418.1C433.3 418.8 432.7 419.4 432.1 420C431.5 420.7 430.9 421.4 430.3 422.1C431 422.9 432.1 424 433.5 425.3L435.9 427.4C436.5 426.8 437 426.4 437.3 426L438.7 424.5C439.3 423.8 439.6 423.3 439.6 423.2C439.6 423 439.1 422.4 438.3 421.5V421.3L439 420.6H439.2C440 421.4 440.8 422.1 441.5 422.8C442.3 423.5 443.1 424.2 444.1 425V425.2L443.4 426H443.2C442.3 425.2 441.7 424.8 441.5 424.7C441.2 424.7 440.8 424.9 440.1 425.5C439.6 426 439.1 426.4 438.7 427C438.2 427.6 437.7 428.1 437.3 428.6L440.8 431.8C441.8 432.7 442.8 433.5 443.8 434.4L445.2 432.8C447.2 430.6 448.4 429.2 448.7 428.5C448.8 428.4 448.8 428.3 448.8 428.2C448.8 428 448.6 427.8 448.3 427.3L447.1 425.7V425.5L447.7 424.8L447.8 424.9Z" fill="white"></path><path d="M466.1 410.1V410.3C466.1 410.4 465.9 410.5 465.7 410.8C464.8 411.9 464.2 412.5 464 412.8C463.7 413.2 463.2 413.9 462.5 414.8C462.3 414.7 461.9 414.6 461.2 414.5L453.7 413.6L450.6 413.4C450.2 413.3 449.8 413.4 449.3 413.5L449 413C449.1 412.8 449.3 412.7 449.3 412.6C449.9 411.8 450.3 411.1 450.4 410.4C450.5 409.8 450.4 409.1 450.1 408.3C449.8 407.5 449.2 406.8 448.5 406.2C447.1 405.1 445.8 404.9 444.5 405.6C443.9 405.9 443.2 406.5 442.5 407.5C442.2 407.9 441.9 408.3 441.7 408.7C442.5 409.4 443.8 410.5 445.7 412L452.1 417C454.1 418.5 455.4 419.4 456 419.8C456.3 419.9 456.5 419.9 456.8 419.7C456.9 419.6 457.3 419.1 458 418.3H458.2L459 418.9V419.1C458.3 419.9 457.3 421.1 456 422.8C454.6 424.5 453.7 425.8 453.1 426.6H452.9L452.1 426V425.8C452.7 425 453 424.4 453.1 424.3C453.2 424 453.2 423.7 453 423.5C452.5 422.9 451.2 421.9 449.3 420.4L442.8 415.4C440.9 413.9 439.6 413 438.9 412.6C438.6 412.5 438.4 412.5 438.1 412.7C438 412.8 437.6 413.2 436.9 414H436.7L435.9 413.4V413.2C436.6 412.4 437.6 411.2 438.9 409.5C439.7 408.5 440.3 407.7 440.8 407.1C441.7 405.8 442.4 404.9 442.9 404.3C444 402.9 445 402 445.7 401.5C446.7 400.9 447.8 400.7 448.9 401.1C449.4 401.3 449.9 401.6 450.5 402C452.7 403.7 453.3 406.1 452.3 409.3C453.3 409.4 454.3 409.6 455.4 409.6L459.8 410C462.4 410.2 463.9 410.2 464.4 410C464.7 409.9 465 409.7 465.2 409.4H465.4L466.1 410.1Z" fill="white"></path><path d="M472.1 391.9C473.2 392.9 474.6 394 476.2 395V395.2L469.8 404.5C468.7 406.1 468.1 407.2 467.7 407.9H467.5L467.1 407.7L467 407.6C467 406.7 467 406.2 466.9 406.1C466.8 405.9 466.3 405.5 465.3 404.8L462.4 402.9L455.8 398.6C453.7 397.2 452.4 396.4 451.6 396.1C451.3 396 451.1 396 450.8 396.2C450.7 396.3 450.3 396.8 449.7 397.6L449.5 397.7L448.6 397.1V396.9C449.2 396 450.2 394.8 451.3 393C452.5 391.3 453.4 389.9 453.9 389L454.1 388.9L455 389.5V389.7C454.5 390.6 454.2 391.1 454.1 391.3C454 391.6 454.1 391.9 454.3 392.1C454.8 392.6 456.2 393.6 458.2 394.9L466 400C467.1 400.7 468.3 401.4 469.3 402.1L470.5 400.3C472.2 397.8 473.1 396.2 473.3 395.5C473.3 395.4 473.3 395.3 473.3 395.2C473.2 395 473 394.8 472.7 394.4L471.3 393.1L471.2 392.9L471.7 392.1L472.1 391.9Z" fill="white"></path><path d="M489 373.1L489.1 373.3C487.9 375.2 487.2 376.4 487 376.8C486.1 378.5 485.2 380 484.5 381.4H484.3L483.4 380.9L483.3 380.6L483.9 379.4C484.2 378.9 484.1 378.5 483.8 378.4C483.6 378.3 483.1 378.2 482.3 378.1L478.8 377.6C478.1 378.8 477.3 380.1 476.6 381.4C476.2 382.1 475.6 383.1 474.8 384.5L476.1 386C477.1 387.2 477.7 387.8 478.1 388C478.4 388.2 478.7 388.1 479.1 387.7C479.3 387.5 479.6 387.1 480 386.4L480.2 386.3L481.1 386.8L481.2 387C480.2 388.6 479.5 389.7 479.3 390.2C479.1 390.6 478.6 391.5 477.8 393L477.6 393.1L476.7 392.6L476.6 392.4C477.1 391.5 477.2 390.8 477 390.4C476.8 390 475.4 388.2 472.7 384.9L465.8 376.4C465.3 375.7 464.5 374.8 463.4 373.5L464.5 371.6L485.5 374C486.3 374.1 486.8 374 487 373.8C487.2 373.6 487.6 373.2 487.9 372.6H488.1L489 373.1ZM476.8 377.5L468 376.4L473.5 383.1C473.9 382.4 474.5 381.4 475.2 380.3C475.9 379.1 476.5 378.2 476.8 377.5Z" fill="white"></path><path d="M481.5 340.8L481.6 341C481.2 342 481 342.6 481 342.7C480.9 343 481 343.2 481.3 343.4C481.9 343.8 483.3 344.5 485.6 345.6L491.3 348.3C495.5 350.2 498.3 351.5 499.7 352V352.2C499 353.2 498.5 353.9 498.2 354.4C494.2 355.6 487 357.4 476.6 360L485.8 364.3C488 365.4 489.5 366 490.3 366.2C490.6 366.3 490.8 366.2 491 366C491.1 365.9 491.4 365.4 491.9 364.5L492.1 364.4L493 364.9L493.1 365.1C492.5 366.1 492 367.1 491.6 368.1C491.1 369.2 490.6 370.2 490.1 371.4L489.9 371.5L488.9 371L488.8 370.8C489.2 369.8 489.4 369.3 489.4 369.1C489.5 368.8 489.4 368.6 489.1 368.4C488.5 368 487.1 367.2 484.8 366.2L477.3 362.7C475.1 361.7 473.6 361 472.8 360.9C472.5 360.8 472.3 360.9 472.1 361.1C472 361.2 471.7 361.8 471.2 362.7L471 362.8L470 362.3V362.1C470.5 361.3 470.9 360.4 471.3 359.6C471.9 358.4 472.3 357.3 472.7 356.4C478.8 355.2 485.5 353.5 492.8 351.4L484.5 347.6C482.2 346.5 480.8 345.9 480.1 345.7C479.8 345.6 479.6 345.7 479.3 345.9C479.2 346 478.9 346.5 478.4 347.5L478.2 347.6L477.3 347.2L477.2 347C477.7 346 478.3 345 478.7 344.1C479.3 342.9 479.7 341.8 480.2 340.8L480.4 340.7L481.5 340.8Z" fill="white"></path><path d="M498.3 321.1C501.6 322.3 503.9 324.4 505.3 327.4C506 328.9 506.3 330.4 506.3 332.1C506.3 333.9 505.9 335.9 505.1 338L503 343C502.5 344.4 502 345.5 501.8 346.4L501.6 346.5L501.2 346.3L501 346.2C500.8 345.3 500.7 344.8 500.6 344.7C500.5 344.5 499.9 344.2 498.7 343.8L495.5 342.5L488.1 339.7C485.8 338.8 484.2 338.3 483.5 338.2C483.2 338.1 482.9 338.2 482.7 338.5C482.6 338.6 482.4 339.2 481.9 340.2L481.7 340.3L480.7 339.9V339.7C481.2 338.7 481.5 337.8 481.9 336.8C482.8 334.6 483.5 332.5 484.1 330.7C484.4 329.8 484.8 328.9 485.1 328C486.1 325.5 487.1 323.7 488.2 322.6C489.4 321.4 490.9 320.6 492.5 320.3C494.2 320.1 496.1 320.3 498.3 321.1ZM497.3 325.8C494.6 324.8 492.3 324.6 490.4 325.4C489.4 325.8 488.5 326.4 487.8 327.3C487.1 328.1 486.5 329.4 485.8 331.2C485.5 332.1 485.2 333 485 333.8C486.1 334.3 488.7 335.3 492.8 336.9L499.2 339.3C500.6 339.8 501.6 340.2 502 340.3C502.5 339.5 502.9 338.7 503.2 337.8C504 335.9 504.3 334.3 504.1 333C504 331.6 503.3 330.2 502.1 329C500.9 327.6 499.3 326.6 497.3 325.8Z" fill="white"></path><path d="M104.2 203.6C102.2 209.8 98.6001 213.2 93.7001 213.7C90.7001 214 85.7001 213 78.7001 210.7C71.6001 208.4 67.0001 206.2 64.8001 204.2C61.1001 200.8 60.3001 196 62.3001 189.8C65.0001 181.6 70.8001 179.1 79.7001 182.4L77.0001 190.7C74.3001 189.8 72.3001 189.5 71.0001 189.6C69.7001 189.8 68.9001 190.5 68.5001 191.8C67.8001 194 68.4001 195.9 70.6001 197.4C72.4001 198.6 76.1001 200.2 81.7001 202C87.3001 203.9 91.2001 204.8 93.4001 204.9C96.0001 204.9 97.7001 203.8 98.4001 201.6C99.0001 199.9 98.4001 198.5 96.6001 197.3C95.8001 196.8 94.1001 196.1 91.4001 195L94.1001 186.6C99.4001 188.3 102.8 190.6 104.3 193.4C105.5 196.1 105.6 199.4 104.2 203.6Z" fill="#241F20"></path><path d="M115.5 177.6C112.4 183.4 108.3 186.1 103.3 185.7C100.3 185.5 95.6001 183.6 89.0001 180.2C82.4001 176.7 78.2001 173.7 76.4001 171.4C73.4001 167.4 73.4001 162.6 76.5001 156.8C79.6001 151 83.6001 148.3 88.6001 148.6C91.6001 148.8 96.4001 150.7 102.9 154.2C109.4 157.7 113.6 160.6 115.5 163C118.6 166.9 118.5 171.8 115.5 177.6ZM109.8 174.5C110.9 172.4 110.6 170.4 108.8 168.6C107.3 167.1 103.9 164.9 98.7001 162.1C93.5001 159.3 89.8001 157.7 87.7001 157.3C85.1001 156.8 83.3001 157.6 82.2001 159.7C81.1001 161.8 81.4001 163.7 83.2001 165.6C84.7001 167.1 88.1001 169.3 93.3001 172.1C98.5001 174.9 102.2 176.5 104.3 176.9C106.9 177.4 108.7 176.6 109.8 174.5Z" fill="#241F20"></path><path d="M137.1 144.2L123.7 162L89.5002 136.3L94.9002 129.1L123.4 150.6L131.5 139.9L137.1 144.2Z" fill="#241F20"></path><path d="M153.6 127.8L136.9 144.7L106.5 114.7L122.9 98.1001L127.6 102.7L117.4 112.9L124.9 120.3L134.2 110.9L138.9 115.5L129.6 124.9L138.5 133.7L148.9 123.1L153.6 127.8Z" fill="#241F20"></path><path d="M160.2 86.1001L153 91.3001C151.7 89.4001 150.4 88.1001 149.2 87.6001C147.7 86.9001 146 87.1001 144.3 88.4001C142.3 89.9001 141.9 92.1001 143.2 95.1001C143.9 96.9001 145.9 100 149.1 104.4C153 109.7 155.8 113 157.6 114C159.4 115.1 161.4 114.9 163.5 113.4C164.6 112.6 165.7 111.5 166.6 110.1L161 102.5L157.1 105.3L153.2 100L164.3 91.9001L177.1 109.4C173.7 113 170.8 115.8 168.2 117.7C162.4 121.9 157.6 123.3 153.8 121.8C150.7 120.6 146.5 116.5 141.4 109.4C137.3 103.7 134.9 99.3001 134.3 96.1001C133.4 91.1001 135.6 86.7001 140.9 82.9001C144.5 80.3001 148 79.2001 151.4 79.7001C154.9 80.2001 157.8 82.3001 160.2 86.1001Z" fill="#241F20"></path><path d="M188.6 104.4L180.8 108.7L160.2 71.2001L168 66.9001L188.6 104.4Z" fill="#241F20"></path><path d="M204.7 98C198.6 100.4 193.7 99.8 190.2 96.3C188.1 94.2 185.6 89.7 182.9 82.8C180.2 75.8 178.9 70.9 179 67.9C179.2 62.9 182.4 59.2 188.5 56.8C194.6 54.4 199.4 54.9 203 58.4C205.2 60.5 207.6 65 210.3 72C213 78.9 214.3 83.9 214.2 86.8C214 91.8 210.8 95.6 204.7 98ZM202.4 92C204.6 91.1 205.6 89.4 205.4 86.8C205.3 84.7 204.1 80.8 201.9 75.3C199.7 69.8 198 66.2 196.6 64.5C195 62.5 193 61.9 190.8 62.8C188.6 63.7 187.6 65.4 187.8 68C188 70.1 189.1 74 191.3 79.5C193.5 85 195.2 88.6 196.6 90.3C198.3 92.3 200.2 92.9 202.4 92Z" fill="#241F20"></path><path d="M234.7 88.3L226 89.5001L231.7 45.5L243.4 43.8L260.9 84.5001L251.6 85.8L247.9 76.7L235.8 78.4L234.7 88.3ZM245 70.5001L238.1 52.8H238L236.6 71.7L245 70.5001Z" fill="#241F20"></path><path d="M269.4 84.8L260.7 84.1L264 41.5L278.3 42.6L282.7 72.1H282.8L292.1 43.7L306 44.8L302.7 87.4L294 86.7L296.5 53.8L285.7 86.1L277.1 85.4L271.8 51.9L269.4 84.8Z" fill="#241F20"></path><path d="M328.3 95.4001L305.4 88.9001L317.1 47.8L339.5 54.2001L337.7 60.5001L323.9 56.5001L321 66.6001L333.7 70.3001L331.9 76.6001L319.1 72.9001L315.7 84.9001L330 89.0001L328.3 95.4001Z" fill="#241F20"></path><path d="M345 83.5L337.5 99.6L329.4 95.8L347.4 57L362.4 64C365.2 65.3 367.1 67.2 367.8 69.7C368.6 72.2 368.3 75.1 366.7 78.4C364.1 83.9 360.3 86 355.1 84.6V84.7C359.5 87.5 360.7 91.1 358.6 95.6C355.7 101.9 354.2 105.9 354.2 107.4L346.2 103.7C346.2 102.5 346.5 101.1 347.1 99.6C347.2 99.3 347.8 98 348.8 95.8C350.3 92.7 351 90.6 351.1 89.6C351.1 87.5 349.8 85.9 347 84.6L345 83.5ZM352.8 66.8L347.8 77.6L351.4 79.2C352.9 79.9 354.2 79.7 355.6 78.8C356.6 78.1 357.5 76.9 358.2 75.4C359.8 72 359.2 69.7 356.4 68.4L352.8 66.8Z" fill="#241F20"></path><path d="M362.9 113.2L355.2 108.5L377.6 72.1001L385.2 76.8001L362.9 113.2Z" fill="#241F20"></path><path d="M376.5 124C371.3 119.9 369.4 115.5 370.6 110.6C371.3 107.7 374 103.3 378.6 97.5C383.2 91.6 386.9 88 389.5 86.6C393.9 84.3 398.7 85.1999 403.9 89.2999C410.7 94.6999 411 100.9 404.8 108.2L397.9 102.8C399.7 100.6 400.7 98.8 401 97.5C401.3 96.2 400.9 95.1999 399.9 94.2999C398 92.8999 396 92.7999 393.9 94.2999C392.1 95.4999 389.4 98.5 385.7 103.1C382 107.8 379.8 111.1 379.1 113.1C378.2 115.5 378.6 117.5 380.5 119C381.9 120.1 383.5 120 385.2 118.8C385.9 118.3 387.2 116.9 389.1 114.7L396 120.2C392.6 124.5 389.3 127 386.1 127.4C383.1 127.9 379.9 126.7 376.5 124Z" fill="#241F20"></path><path d="M391.7 136.5L385.8 129.9L425.6 110.2L433.5 119L409.4 156.2L403.1 149.2L408.6 141.1L400.5 132L391.7 136.5ZM412.2 135.3L423.1 119.8L423 119.7L406.5 129L412.2 135.3Z" fill="#241F20"></path><path d="M413.5 163.4L409.2 156.2L445.9 134.2L452.1 144.6L432.5 169.6L457.9 154.4L462.2 161.5L425.5 183.5L419.4 173.3L440.2 147.2L413.5 163.4Z" fill="#241F20"></path><path d="M431 200.3C428.8 194.1 429.4 189.3 433.1 185.8C435.3 183.7 439.8 181.4 446.8 178.9C453.8 176.4 458.8 175.2 461.8 175.5C466.7 175.9 470.3 179.2 472.6 185.3C474.8 191.5 474.1 196.3 470.6 199.8C468.5 201.9 463.8 204.2 456.9 206.7C449.9 209.2 444.9 210.4 441.9 210.1C436.8 209.7 433.2 206.4 431 200.3ZM437 198.1C437.8 200.3 439.5 201.4 442.1 201.3C444.2 201.2 448.1 200.1 453.7 198.1C459.3 196.1 462.9 194.4 464.6 193.1C466.6 191.5 467.3 189.6 466.5 187.4C465.7 185.2 464 184.1 461.4 184.2C459.2 184.3 455.4 185.4 449.8 187.4C444.2 189.4 440.6 191.1 438.8 192.3C436.8 194 436.2 195.9 437 198.1Z" fill="#241F20"></path><path d="M175.1 139.9C175.1 139.9 223.9 170.9 266.2 169.4C308.5 167.9 359.2 139.1 359.2 139.1L382.3 167.5C382.3 167.5 361.5 183.7 369.4 208C377.3 232.2 406.5 290.9 383.7 326.8C361 362.7 286.1 368 280.4 372.9C274.8 377.8 266.4 389.2 266.4 389.2C266.4 389.2 266.4 376.7 226 367.2C185.5 357.8 141.3 337.7 139.8 299.9C138.3 262.1 176.1 218.2 165.5 191.3C154.9 164.5 152.3 168.2 152.3 168.2L175.1 139.9Z" fill="white"></path><path d="M330 180.699C330 178.099 327.9 176.099 325.4 176.099C322.8 176.099 320.8 178.199 320.8 180.699C320.8 180.899 320.9 181.199 320.9 181.399C320.5 181.799 320.4 182.099 320.4 182.099L244.8 280.799L249.6 283.999L325.5 185.299C328 185.199 330 183.199 330 180.699Z" fill="#241F20"></path><path d="M341.3 224.699C341.3 224.699 345.4 238.799 355.4 241.399C365.3 244.099 378.5 246.799 378.5 246.799L343.8 291.699C343.8 291.699 326.6 290.299 314.9 279.299C303.2 268.399 309.1 257.699 309.1 257.699L341.3 224.699Z" fill="white"></path><path d="M343.6 292.399C343.5 292.399 326.2 290.999 314.3 279.799C308.3 274.199 306.8 268.499 306.8 264.299C306.8 260.099 308.3 257.299 308.3 257.199V257.099L340.7 223.999L341.6 223.099L342 224.299C342 224.299 342 224.299 342.1 224.399C342.1 224.499 342.2 224.699 342.2 224.799C342.3 225.199 342.5 225.699 342.8 226.399C343.3 227.699 344.1 229.499 345.3 231.399C347.5 235.199 350.9 239.199 355.6 240.399C363 242.399 372.3 244.399 376.4 245.299C377.8 245.599 378.6 245.799 378.6 245.799L379.8 245.999L344.1 292.199L343.6 292.399ZM309.6 258.199C309.6 258.299 309.5 258.399 309.4 258.499C309.3 258.799 309.1 259.199 308.9 259.799C308.6 260.899 308.2 262.499 308.2 264.399C308.2 268.299 309.6 273.399 315.2 278.799C325.2 288.199 339.5 290.499 342.9 290.899C343 290.899 343.2 290.899 343.2 290.899L377 247.299C373.6 246.599 363.3 244.399 355 242.199C349.7 240.799 346.1 236.399 343.8 232.499C342.3 229.899 341.3 227.499 340.8 226.199L309.6 258.199C309.6 258.099 309.6 258.099 309.6 258.199Z" fill="#241F20"></path><path d="M326.9 249.499L324.2 259.199C324.2 259.199 322.1 260.899 316 260.899C309.9 260.899 308.9 257.699 308.9 257.699L322.1 244.099L326.9 249.499Z" fill="white"></path><path d="M309.8 259.899C308.7 258.999 308.3 257.999 308.3 257.999L308.1 257.599L322.2 243.099L327.5 248.999L326.9 249.499L327.5 248.999L327.8 249.299L325 259.599L324.8 259.799C324.6 259.899 322.4 261.699 316.2 261.699C312.9 261.699 311 260.799 309.8 259.899ZM310.7 258.699C311.6 259.399 313.2 260.099 316.1 260.099C320.8 260.099 323 258.999 323.6 258.599L326.1 249.599L322.2 245.199L309.9 257.799C310.1 258.099 310.3 258.399 310.7 258.699Z" fill="#241F20"></path><path d="M318.5 188.999L285.1 233.599C285.1 233.599 308.8 234.399 317.5 241.999C325.3 248.799 324.6 258.699 324.6 258.699L355.9 223.299C355.9 223.299 359.6 206.299 347.9 197.599C336.2 188.799 318.5 188.999 318.5 188.999Z" fill="white"></path><path d="M323.8 258.599C323.8 258.599 323.8 258.599 323.8 258.499C323.8 258.399 323.8 258.199 323.8 257.999C323.8 255.799 323.3 247.999 317 242.499C313.4 239.399 306.8 237.299 300.6 236.099C294.4 234.899 288.4 234.499 286.1 234.399C285.5 234.399 285.1 234.299 285.1 234.299H283.7L318 188.599L318.2 188.299H318.6C318.6 188.299 318.7 188.299 318.8 188.299C320.7 188.299 337.1 188.499 348.4 196.899C352.1 199.699 354.3 203.299 355.6 206.899C356.9 210.499 357.2 214.199 357.2 217.099C357.2 220.799 356.7 223.299 356.7 223.399V223.599L323.8 260.799V258.599ZM298.1 234.199C305.2 235.399 313.3 237.399 317.9 241.399C323.8 246.599 325 253.399 325.2 256.799L355.1 222.999C355.1 222.899 355.1 222.899 355.2 222.799C355.2 222.499 355.3 222.099 355.4 221.599C355.5 220.599 355.7 219.099 355.7 217.299C355.7 214.499 355.4 210.999 354.2 207.599C353 204.199 350.9 200.899 347.5 198.299C337.1 190.499 321.6 189.899 319 189.899L286.7 232.999C288.8 232.999 293.2 233.399 298.1 234.199Z" fill="#241F20"></path><path d="M342.4 240.199C342.4 240.199 346 243.699 354.8 247.499C361.4 250.299 373.8 251.199 373.8 251.199L376.8 247.299C376.8 247.299 362.2 245.899 354.6 242.699C346.9 239.499 346 236.199 346 236.199L342.4 240.199Z" fill="#EC1B23"></path><path d="M337.1 246.499C337.1 246.499 340.7 249.999 349.5 253.799C356.1 256.699 368.5 257.499 368.5 257.499L371.5 253.699C371.5 253.699 357 252.299 349.3 248.999C341.6 245.799 340.7 242.499 340.7 242.499L337.1 246.499Z" fill="#EC1B23"></path><path d="M332 253.199C332 253.199 335.6 256.699 344.4 260.499C351 263.299 363.4 264.199 363.4 264.199L366.4 260.399C366.4 260.399 351.9 258.899 344.2 255.699C336.5 252.499 335.6 249.299 335.6 249.299L332 253.199Z" fill="#EC1B23"></path><path d="M327.1 258.599C327.1 258.599 330.7 262.099 339.5 265.899C346.1 268.799 358.5 269.599 358.5 269.599L361.5 265.799C361.5 265.799 346.9 264.299 339.3 261.099C331.6 257.899 330.7 254.599 330.7 254.599L327.1 258.599Z" fill="#EC1B23"></path><path d="M320.7 262.699C320.7 262.699 323.3 266.799 333.9 271.199C340.6 273.899 352.9 274.899 352.9 274.899L355.9 271.099C355.9 271.099 341.4 269.699 333.7 266.499C326 263.299 325.1 259.999 325.1 259.999L320.7 262.699Z" fill="#EC1B23"></path><path d="M313.2 262.499C313.2 262.499 314.4 273.199 329.3 278.499C338.6 281.699 348.3 282.199 348.3 282.199L351.3 278.299C351.3 278.299 337.8 277.299 330.2 273.899C319.6 269.199 318.1 262.499 318.1 262.499H313.2Z" fill="#EC1B23"></path><path d="M309 260.399C309 260.399 306.1 270.399 321.2 282.699C329.2 289.199 343.5 289.999 343.5 289.999L346.1 285.499C346.1 285.499 331.5 284.099 324.2 280.099C311.7 273.399 311.7 261.699 311.7 261.699L309 260.399Z" fill="#EC1B23"></path><path d="M301 214.899C301 214.899 319.3 215.599 328 222.799C336.8 229.999 339.4 239.699 339.4 239.699L335.2 244.299C335.2 244.299 335.2 232.699 322.9 224.899C310.6 217.099 297.9 218.599 297.9 218.599L301 214.899Z" fill="#EC1B23"></path><path d="M296.1 221.199C296.1 221.199 314.4 221.899 323.1 229.099C331.9 236.299 334.5 245.999 334.5 245.999L330.3 250.699C330.3 250.699 330.3 239.099 318 231.299C305.7 223.499 293.1 224.999 293.1 224.999L296.1 221.199Z" fill="#EC1B23"></path><path d="M291.4 228.299C291.4 228.299 310 228.599 318.7 235.799C327.5 242.999 328.3 252.499 328.3 252.499L325.7 255.599C325.7 255.599 326.9 245.299 315.2 238.599C303.5 231.899 287.9 232.199 287.9 232.199L291.4 228.299Z" fill="#EC1B23"></path><path d="M303.3 212.699C303.3 212.699 321.3 211.899 329.6 219.199C337.9 226.499 341.1 236.399 341.1 236.399L354.4 222.399C354.4 222.399 356.3 208.399 346.9 199.799C337.4 191.199 318.7 191.299 318.7 191.299L303.3 212.699Z" fill="#005AA9"></path><path d="M323 191.999V193.299L324.3 193.599L323.1 194.099L323.2 195.299L322.4 194.299L321.1 194.799L321.8 193.699L321 192.799L322.3 193.099L323 191.999Z" fill="white"></path><path d="M343.4 199.899L343.5 201.199L344.8 201.499L343.6 201.999L343.7 203.199L342.8 202.299L341.6 202.699L342.3 201.599L341.4 200.699L342.7 200.999L343.4 199.899Z" fill="white"></path><path d="M325.9 194.999L326 196.199L327.2 196.499L326 196.999L326.1 198.299L325.3 197.299L324 197.699L324.8 196.699L323.9 195.699L325.2 195.999L325.9 194.999Z" fill="white"></path><path d="M332.7 197.6L332.8 198.9L334.1 199.2L332.8 199.6L332.9 200.9L332.1 199.9L330.9 200.4L331.5 199.3L330.7 198.4L332 198.7L332.7 197.6Z" fill="white"></path><path d="M338.8 199.799L338.9 200.999L340.2 201.399L339 201.799V203.099L338.2 202.099L337 202.599L337.7 201.499L336.8 200.499L338.1 200.899L338.8 199.799Z" fill="white"></path><path d="M346.4 203.499L346.5 204.799L347.8 205.099L346.5 205.499L346.6 206.799L345.8 205.899L344.6 206.299L345.3 205.199L344.5 204.199L345.7 204.599L346.4 203.499Z" fill="white"></path><path d="M350.1 210.899L350.2 212.099L351.5 212.399L350.3 212.899L350.4 214.099L349.5 213.199L348.3 213.699L349 212.599L348.1 211.599L349.4 211.899L350.1 210.899Z" fill="white"></path><path d="M330.7 193.899L330.8 195.199L332.1 195.499L330.9 195.999L331 197.199L330.1 196.299L328.9 196.699L329.6 195.699L328.8 194.699L330 194.999L330.7 193.899Z" fill="white"></path><path d="M337.4 195.999V197.199L338.7 197.499L337.5 197.999L337.6 199.299L336.7 198.299L335.5 198.799L336.2 197.699L335.4 196.699L336.6 196.999L337.4 195.999Z" fill="white"></path><path d="M350.3 207.2L350.4 208.5L351.6 208.8L350.4 209.2L350.5 210.5L349.6 209.5L348.4 210L349.1 208.9L348.3 208L349.5 208.3L350.3 207.2Z" fill="white"></path><path d="M352.4 215.4L352.5 216.6L353.7 217L352.5 217.4L352.6 218.7L351.7 217.7L350.5 218.2L351.2 217.1L350.4 216.2L351.7 216.5L352.4 215.4Z" fill="white"></path><path d="M318.5 194.499V195.799L319.8 196.099L318.6 196.599L318.7 197.799L317.9 196.799L316.6 197.299L317.3 196.199L316.5 195.299L317.7 195.599L318.5 194.499Z" fill="white"></path><path d="M327.5 198.099L327.6 199.299L328.9 199.699L327.6 200.099L327.7 201.399L326.9 200.399L325.7 200.899L326.4 199.799L325.5 198.799L326.8 199.099L327.5 198.099Z" fill="white"></path><path d="M321.8 198.399L321.9 199.699L323.2 199.999L322 200.399V201.699L321.2 200.699L320 201.199L320.7 200.099L319.9 199.099L321.1 199.499L321.8 198.399Z" fill="white"></path><path d="M329.6 201.5V202.8L330.9 203.1L329.7 203.6L329.8 204.8L328.9 203.9L327.7 204.3L328.4 203.2L327.6 202.3L328.9 202.6L329.6 201.5Z" fill="white"></path><path d="M335.6 205.399L335.7 206.699L336.9 206.999L335.7 207.399L335.8 208.699L335 207.699L333.7 208.199L334.4 207.099L333.6 206.099L334.9 206.499L335.6 205.399Z" fill="white"></path><path d="M339.3 208.299L339.4 209.499L340.7 209.799L339.5 210.299V211.599L338.7 210.599L337.5 211.099L338.2 209.999L337.4 208.999L338.6 209.299L339.3 208.299Z" fill="white"></path><path d="M345.6 211.199L345.7 212.399L347 212.699L345.7 213.199L345.9 214.499L345 213.499L343.8 213.999L344.5 212.899L343.6 211.899L344.9 212.199L345.6 211.199Z" fill="white"></path><path d="M334.5 201.5L334.6 202.7L335.8 203.1L334.6 203.5L334.7 204.8L333.8 203.8L332.6 204.3L333.3 203.2L332.5 202.2L333.8 202.6L334.5 201.5Z" fill="white"></path><path d="M340.1 204.099L340.2 205.399L341.5 205.699L340.2 206.099L340.3 207.399L339.5 206.399L338.2 206.899L338.9 205.799L338.1 204.899L339.4 205.199L340.1 204.099Z" fill="white"></path><path d="M344.6 206.899V208.199L345.9 208.499L344.7 208.999L344.8 210.199L343.9 209.299L342.7 209.699L343.4 208.599L342.6 207.699L343.8 207.999L344.6 206.899Z" fill="white"></path><path d="M347.9 215.4L348 216.7L349.3 217L348.1 217.5V218.7L347.3 217.8L346.1 218.2L346.8 217.2L345.9 216.2L347.2 216.5L347.9 215.4Z" fill="white"></path><path d="M317.2 199.299L317.3 200.599L318.6 200.899L317.4 201.299L317.5 202.599L316.6 201.599L315.4 202.099L316.1 200.999L315.3 200.099L316.5 200.399L317.2 199.299Z" fill="white"></path><path d="M324.7 201.299L324.8 202.599L326.1 202.899L324.9 203.399L325 204.699L324.1 203.699L322.9 204.099L323.6 203.099L322.8 202.099L324 202.399L324.7 201.299Z" fill="white"></path><path d="M319.2 202.5L319.3 203.8L320.6 204.1L319.4 204.6L319.5 205.9L318.6 204.9L317.4 205.3L318.1 204.3L317.2 203.3L318.5 203.6L319.2 202.5Z" fill="white"></path><path d="M327 205.299L327.1 206.599L328.4 206.899L327.2 207.399L327.3 208.599L326.4 207.599L325.2 208.099L325.9 206.999L325.1 206.099L326.3 206.399L327 205.299Z" fill="white"></path><path d="M332.6 208.999L332.7 210.199L333.9 210.599L332.7 210.999L332.8 212.299L332 211.299L330.7 211.799L331.4 210.699L330.6 209.699L331.9 209.999L332.6 208.999Z" fill="white"></path><path d="M336.4 211.199L336.5 212.499L337.8 212.799L336.6 213.199V214.499L335.8 213.499L334.6 213.999L335.3 212.899L334.4 211.999L335.7 212.299L336.4 211.199Z" fill="white"></path><path d="M340.6 215.199V216.499L341.9 216.799L340.7 217.299L340.8 218.499L339.9 217.599L338.7 217.999L339.4 216.999L338.6 215.999L339.8 216.299L340.6 215.199Z" fill="white"></path><path d="M331.7 205.199L331.9 206.499L333.1 206.799L331.9 207.199L332 208.499L331.1 207.499L329.9 207.999L330.6 206.899L329.8 205.999L331 206.299L331.7 205.199Z" fill="white"></path><path d="M341.8 211.1L341.9 212.4L343.1 212.7L341.9 213.2L342 214.4L341.2 213.5L340 213.9L340.7 212.9L339.8 211.9L341.1 212.2L341.8 211.1Z" fill="white"></path><path d="M344 215.4L344.1 216.7L345.4 217L344.1 217.5L344.2 218.7L343.4 217.8L342.2 218.2L342.9 217.1L342 216.2L343.3 216.5L344 215.4Z" fill="white"></path><path d="M350.8 219.399L350.9 220.699L352.2 220.999L350.9 221.499L351 222.699L350.2 221.799L348.9 222.199L349.6 221.199L348.8 220.199L350.1 220.499L350.8 219.399Z" fill="white"></path><path d="M322.7 204.999L322.8 206.199L324 206.599L322.8 206.999L322.9 208.299L322 207.299L320.8 207.799L321.5 206.699L320.7 205.699L322 205.999L322.7 204.999Z" fill="white"></path><path d="M328.4 208.499L328.5 209.799L329.7 210.099L328.5 210.499L328.6 211.799L327.7 210.799L326.5 211.299L327.2 210.199L326.4 209.299L327.7 209.599L328.4 208.499Z" fill="white"></path><path d="M312 203.099L312.1 204.299L313.3 204.699L312.1 205.099L312.2 206.399L311.4 205.399L310.1 205.899L310.9 204.799L310 203.799L311.3 204.199L312 203.099Z" fill="white"></path><path d="M317 205.899L317.1 207.199L318.4 207.499L317.2 207.999V209.199L316.4 208.299L315.2 208.699L315.9 207.699L315.1 206.699L316.3 206.999L317 205.899Z" fill="white"></path><path d="M323.2 209.2L323.3 210.4L324.6 210.7L323.4 211.2V212.5L322.6 211.5L321.4 212L322.1 210.9L321.2 209.9L322.5 210.2L323.2 209.2Z" fill="white"></path><path d="M337.7 219.599L337.8 220.899L339 221.199L337.8 221.599L337.9 222.899L337.1 221.899L335.9 222.399L336.5 221.299L335.7 220.399L337 220.699L337.7 219.599Z" fill="white"></path><path d="M345.7 224.799L345.8 225.999L347.1 226.399L345.9 226.799L346 228.099L345.1 227.099L343.9 227.599L344.6 226.499L343.7 225.499L345 225.899L345.7 224.799Z" fill="white"></path><path d="M331.3 211.799V213.099L332.6 213.399L331.4 213.899L331.5 215.199L330.6 214.199L329.4 214.599L330.1 213.599L329.3 212.599L330.6 212.899L331.3 211.799Z" fill="white"></path><path d="M336.2 215.899L336.3 217.099L337.6 217.399L336.3 217.899L336.4 219.199L335.6 218.199L334.3 218.599L335 217.599L334.2 216.599L335.5 216.899L336.2 215.899Z" fill="white"></path><path d="M342.5 219.399L342.6 220.699L343.9 220.999L342.6 221.499L342.7 222.699L341.9 221.799L340.6 222.299L341.3 221.199L340.5 220.199L341.8 220.499L342.5 219.399Z" fill="white"></path><path d="M346.4 220.399L346.5 221.599L347.8 221.899L346.5 222.399L346.6 223.599L345.8 222.699L344.5 223.199L345.2 222.099L344.4 221.099L345.7 221.399L346.4 220.399Z" fill="white"></path><path d="M312.9 207.099V208.399L314.2 208.699L313 209.099L313.1 210.399L312.2 209.399L311 209.899L311.7 208.799L310.8 207.899L312.1 208.199L312.9 207.099Z" fill="white"></path><path d="M319.4 209.599V210.799L320.7 211.099L319.5 211.599L319.6 212.899L318.7 211.899L317.5 212.299L318.2 211.299L317.4 210.299L318.7 210.599L319.4 209.599Z" fill="white"></path><path d="M327 211.899L327.1 213.199L328.3 213.499L327.1 213.999L327.2 215.199L326.4 214.199L325.1 214.699L325.8 213.699L325 212.699L326.2 212.999L327 211.899Z" fill="white"></path><path d="M332.1 215.699L332.2 216.999L333.5 217.299L332.3 217.799L332.4 218.999L331.5 217.999L330.3 218.499L331 217.399L330.2 216.499L331.4 216.799L332.1 215.699Z" fill="white"></path><path d="M339.6 224.099L339.7 225.399L341 225.699L339.7 226.199L339.8 227.399L339 226.399L337.7 226.899L338.5 225.899L337.6 224.899L338.9 225.199L339.6 224.099Z" fill="white"></path><path d="M342.3 227.899L342.4 229.099L343.6 229.499L342.4 229.899L342.5 231.199L341.7 230.199L340.4 230.699L341.1 229.599L340.3 228.599L341.6 228.999L342.3 227.899Z" fill="white"></path><path d="M310.4 257.699C310.4 257.699 312.6 259.399 315.3 259.699C319.9 260.099 323.3 258.599 323.3 258.599C323.3 258.599 323.4 257.399 323.4 257.099C323.4 256.599 323.2 255.299 323.2 255.299C323.2 255.299 319.9 256.899 316.9 256.399C314 255.899 313.2 254.799 313.2 254.799L310.4 257.699Z" fill="#EC1B23"></path><path d="M314.9 252.6C314.9 252.6 316.4 253.7 318.3 254C321.4 254.4 322.9 253.6 322.9 253.6C322.9 253.6 322.9 253.1 322.8 252.5C322.7 252.2 322.5 251.4 322.5 251.4C322.5 251.4 321.4 252.1 319.4 251.7C317.4 251.4 316.9 250.6 316.9 250.6L314.9 252.6Z" fill="#EC1B23"></path><path d="M264.3 389.599C264 388.999 263.8 388.499 263.7 388.299L263.4 387.899C262.5 386.299 261.2 384.499 259.3 382.599C257.3 380.499 250.9 377.099 242.2 374.099C233.5 371.099 222.5 368.199 210.5 366.099C197.7 363.899 180 356.899 165.1 345.499C150.2 334.199 137.9 318.099 137.6 297.999C137.6 297.499 137.6 296.999 137.6 296.599C137.6 277.399 143.5 257.899 149.6 240.999C155.7 224.099 162.2 209.399 163.5 200.799C163.7 199.399 163.9 197.999 163.8 196.699C163.9 183.999 153.5 173.499 151 171.199C150.6 170.899 150.5 170.799 150.5 170.799L147.8 168.599L174.3 135.399L176.8 136.499C176.8 136.499 201 147.599 222 156.499C240.3 164.299 264 165.099 267.9 165.199C275 165.199 294.2 164.499 313 156.499C334.1 147.599 358.2 136.499 358.3 136.499L360.7 135.399L387.2 168.699L384.6 170.899C384.6 170.899 384.5 170.999 384.1 171.299C383.7 171.599 383.2 172.099 382.5 172.699C381.2 173.999 379.5 175.799 377.8 178.199C374.4 182.899 371.1 189.399 371.2 196.699C371.2 197.999 371.3 199.399 371.5 200.799L368.1 201.399L371.5 200.799C372.9 209.299 379.3 223.999 385.4 240.999C391.5 257.899 397.3 277.399 397.3 296.599C397.3 296.999 397.3 297.499 397.3 297.899C397 318.099 384.7 334.099 369.8 345.499C354.8 356.899 337.1 363.899 324.3 366.099C312.3 368.199 301.3 370.999 292.6 374.099C284 377.099 277.5 380.399 275.5 382.599C273.5 384.599 272.4 385.999 271.5 387.699C271.5 387.699 271.5 387.699 270.4 389.799L267.1 395.999L264.3 389.599ZM170.6 196.699C170.6 198.399 170.5 200.099 170.2 201.899C168.5 212.099 162 226.499 155.9 243.299C149.9 259.999 144.3 278.799 144.3 296.599C144.3 296.999 144.3 297.399 144.3 297.799C144.5 314.999 155.1 329.299 169.1 339.999C183 350.599 200.1 357.399 211.6 359.299C223.9 361.399 235.2 364.399 244.4 367.599C253.5 370.799 260.3 373.999 264.1 377.699C265.4 378.999 266.5 380.299 267.4 381.499C268.3 380.199 269.4 378.999 270.7 377.699C274.5 373.999 281.3 370.799 290.4 367.599C299.5 364.399 310.9 361.499 323.2 359.299C334.7 357.299 351.8 350.599 365.6 339.999C379.6 329.399 390.2 315.099 390.4 297.799C390.4 297.399 390.4 296.999 390.4 296.599C390.4 278.699 384.9 259.999 378.9 243.299C372.9 226.499 366.4 212.199 364.7 201.899C364.4 200.099 364.3 198.399 364.3 196.699C364.4 182.599 373.2 172.199 377.7 167.799L358.7 143.899C352 146.899 332.8 155.599 315.7 162.799C295.5 171.399 275.4 171.999 267.9 171.999C263.4 171.899 239.3 171.199 219.3 162.699C202.2 155.399 183 146.799 176.4 143.799L157.4 167.699C161.7 172.199 170.5 182.599 170.6 196.699Z" fill="#241F20"></path><path d="M206.9 178.099C206.9 175.399 209.1 173.199 211.8 173.299C214.5 173.299 216.6 175.499 216.6 178.099C216.6 178.399 216.6 178.599 216.5 178.899C216.8 179.399 217 179.599 217 179.599L296.9 283.999L291.8 287.399L211.6 182.999C209 182.799 206.9 180.699 206.9 178.099Z" fill="#241F20"></path><path d="M195 224.6C195 224.6 190.6 239.5 180.1 242.3C169.6 245.1 155.7 247.9 155.7 247.9L192.4 295.4C192.4 295.4 210.6 293.9 223 282.3C235.3 270.8 229.2 259.4 229.2 259.4L195 224.6Z" fill="white"></path><path d="M154.3 247.4L155.5 247.2C155.5 247.2 156.4 247 157.8 246.7C159.3 246.4 161.3 246 163.7 245.4C168.5 244.3 174.6 242.9 179.8 241.5C184.4 240.3 187.9 236.4 190.3 232.7C192.7 228.9 193.9 225.2 194.1 224.5C194.1 224.4 194.1 224.3 194.1 224.3L194.5 223L229.7 258.999V259.1C229.7 259.2 231.4 262.1 231.3 266.6C231.3 271 229.7 277 223.3 282.9C210.7 294.7 192.4 296.2 192.3 296.2H191.8L154.3 247.4ZM192.8 294.6C192.9 294.6 193 294.6 193.1 294.6C193.6 294.5 194.4 294.4 195.3 294.3C197.2 294 199.8 293.399 202.8 292.499C208.8 290.699 216.3 287.5 222.4 281.8C228.4 276.2 229.9 270.7 229.9 266.6C229.9 263 228.8 260.499 228.5 259.999L195.4 226.1C194.9 227.5 193.9 230.1 192.3 232.8C189.8 236.9 186 241.6 180.4 243.1C171.7 245.4 160.8 247.7 157.2 248.5L192.8 294.6ZM194.5 225.2L195 224.7L194.5 225.2Z" fill="#241F20"></path><path d="M210.2 250.799L213 261.099C213 261.099 215.2 262.899 221.6 262.899C228 262.899 229.1 259.499 229.1 259.499L215.1 245.199L210.2 250.799Z" fill="white"></path><path d="M221.6 263.699C215 263.699 212.6 261.799 212.5 261.699L212.3 261.599L209.4 251.099L209.3 250.699L215.2 244.099L230.1 259.399L230 259.799C230 259.899 229.6 260.899 228.3 261.899C227 262.799 225 263.699 221.6 263.699ZM213.8 260.699C214.1 260.899 214.5 261.099 215.1 261.299C216.4 261.699 218.5 262.199 221.6 262.199C224.5 262.199 226.1 261.499 227.1 260.799C227.7 260.399 228 259.999 228.2 259.699L215.2 246.399L211 251.099L213.6 260.699C213.7 260.599 213.8 260.699 213.8 260.699Z" fill="#241F20"></path><path d="M218.5 186.199L254.6 233.799C254.6 233.799 229.3 234.799 220.2 242.799C212 249.999 212.7 260.499 212.7 260.499L179.6 222.999C179.6 222.999 175.8 204.999 188.1 195.799C200.4 186.599 218.5 186.199 218.5 186.199Z" fill="white"></path><path d="M178.9 223.399V223.199C178.9 223.199 178.3 220.399 178.3 216.599C178.3 213.499 178.7 209.699 180 205.799C181.3 201.999 183.7 198.199 187.6 195.199C200.2 185.799 218.4 185.399 218.4 185.399H218.8L256 234.499H254.5C254.5 234.499 254.1 234.499 253.4 234.599C252.7 234.599 251.7 234.699 250.4 234.799C247.9 234.999 244.5 235.399 240.8 235.999C233.4 237.199 224.8 239.499 220.5 243.299C213.8 249.099 213.3 257.299 213.3 259.699C213.3 259.899 213.3 260.099 213.3 260.199C213.3 260.299 213.3 260.299 213.3 260.299L213.5 262.699L178.9 223.399ZM212 258.499C212.2 254.999 213.5 247.699 219.7 242.299C224.6 238.099 233.3 235.899 240.8 234.599C246.1 233.699 250.9 233.299 253.2 233.199L218.3 187.099C218.2 187.099 218.1 187.099 217.9 187.099C217.4 187.099 216.6 187.199 215.7 187.299C213.8 187.499 211.2 187.799 208.2 188.399C202.2 189.599 194.7 191.999 188.7 196.599C185 199.299 182.9 202.799 181.6 206.399C180.3 209.999 179.9 213.699 179.9 216.699C179.9 219.499 180.2 221.699 180.4 222.599C180.4 222.699 180.4 222.799 180.4 222.799L212 258.499Z" fill="#241F20"></path><path d="M247.4 196.699H244.9V181.799C244.3 182.399 243.5 182.899 242.5 183.399C241.5 183.899 240.6 184.299 239.8 184.599V182.399C241.2 181.799 242.5 180.999 243.5 180.199C244.6 179.299 245.3 178.499 245.8 177.699H247.4V196.699Z" fill="#241F20"></path><path d="M254.3 192.299L256.8 192.099C257 193.199 257.4 193.999 258 194.499C258.6 194.899 259.4 195.199 260.3 195.199C261.1 195.199 261.8 194.999 262.4 194.699C263 194.299 263.5 193.899 263.9 193.399C264.3 192.799 264.6 192.099 264.9 191.199C265.1 190.299 265.3 189.299 265.3 188.299C265.3 188.199 265.3 187.999 265.3 187.799C264.8 188.499 264.1 189.199 263.2 189.599C262.3 190.099 261.4 190.299 260.3 190.299C258.6 190.299 257.1 189.699 255.9 188.599C254.7 187.499 254.1 185.899 254.1 184.099C254.1 182.199 254.7 180.599 256 179.499C257.3 178.299 258.8 177.699 260.6 177.699C262 177.699 263.2 177.999 264.3 178.699C265.4 179.399 266.3 180.299 266.9 181.499C267.5 182.799 267.8 184.499 267.8 186.899C267.8 189.299 267.5 191.299 266.9 192.699C266.3 194.099 265.4 195.199 264.3 195.999C263.2 196.799 261.8 197.099 260.3 197.099C258.7 197.099 257.3 196.699 256.3 195.899C255.2 194.899 254.5 193.799 254.3 192.299ZM264.8 183.799C264.8 182.499 264.4 181.399 263.6 180.599C262.8 179.799 261.9 179.399 260.8 179.399C259.7 179.399 258.7 179.799 257.8 180.699C257 181.499 256.5 182.699 256.5 183.999C256.5 185.199 256.9 186.199 257.7 186.999C258.5 187.799 259.5 188.199 260.7 188.099C261.9 188.099 262.8 187.699 263.6 186.999C264.4 186.299 264.8 185.199 264.8 183.799Z" fill="#241F20"></path><path d="M283.5 194.399V196.599H269.7C269.7 195.999 269.8 195.499 270 194.999C270.4 194.099 270.9 193.299 271.7 192.499C272.4 191.599 273.6 190.699 275 189.599C277.3 187.899 278.8 186.599 279.6 185.599C280.4 184.599 280.8 183.699 280.8 182.799C280.8 181.899 280.4 181.099 279.7 180.499C279 179.899 278 179.599 276.9 179.499C275.6 179.499 274.7 179.799 274 180.499C273.3 181.199 272.9 182.099 272.9 183.299L270.3 183.099C270.5 181.299 271.2 179.899 272.3 178.999C273.5 178.099 275 177.599 277 177.599C279 177.599 280.6 178.099 281.7 179.099C282.9 180.099 283.4 181.299 283.4 182.899C283.4 183.699 283.2 184.399 282.9 185.199C282.6 185.899 282 186.699 281.2 187.499C280.4 188.299 279.1 189.399 277.3 190.899C275.8 192.099 274.8 192.899 274.4 193.299C273.9 193.699 273.6 194.099 273.3 194.499L283.5 194.399Z" fill="#241F20"></path><path d="M290.2 186.299C289.2 185.899 288.4 185.399 287.9 184.799C287.4 184.199 287.1 183.399 287.1 182.499C287.1 181.099 287.6 179.899 288.7 178.999C289.8 178.099 291.2 177.599 293 177.599C294.8 177.599 296.3 178.099 297.4 179.099C298.5 180.099 299 181.199 299.1 182.599C299.1 183.499 298.9 184.299 298.3 184.899C297.8 185.599 297.1 186.099 296 186.399C297.3 186.799 298.2 187.399 298.9 188.199C299.6 189.099 299.9 190.099 299.9 191.199C299.9 192.799 299.3 194.199 298 195.299C296.8 196.399 295.1 196.999 293.1 196.999C291 196.999 289.4 196.499 288.1 195.299C286.8 194.199 286.2 192.799 286.2 191.099C286.2 189.899 286.5 188.799 287.2 187.999C288 187.199 288.9 186.599 290.2 186.299ZM288.8 191.199C288.8 191.899 289 192.499 289.3 193.199C289.7 193.799 290.2 194.299 290.9 194.699C291.5 194.999 292.3 195.199 293.1 195.199C294.3 195.199 295.3 194.799 296.1 194.099C296.9 193.399 297.3 192.499 297.3 191.399C297.3 190.299 296.9 189.299 296 188.599C295.2 187.799 294.2 187.499 292.9 187.499C291.7 187.499 290.7 187.899 289.9 188.599C289.3 189.199 288.9 190.099 288.8 191.199ZM289.7 182.399C289.7 183.299 290 183.999 290.6 184.599C291.2 185.199 292.1 185.499 293.1 185.399C294.1 185.399 294.9 185.099 295.5 184.499C296.1 183.999 296.5 183.199 296.4 182.399C296.4 181.499 296.1 180.799 295.4 180.199C294.8 179.599 293.9 179.299 293 179.299C292 179.299 291.2 179.599 290.6 180.199C290 180.899 289.7 181.599 289.7 182.399Z" fill="#241F20"></path><path d="M268.7 288.199C268.7 288.199 265 280.799 253.4 279.499C241.8 278.299 228.2 289.799 220.8 291.899C213.4 293.999 213.4 293.999 213.4 293.999L196.1 346.799L200.2 349.299H267.9L268.7 288.199Z" fill="white"></path><path d="M196.1 346.799L200.2 349.299H267.9L267.8 344.199C267.8 344.199 249.9 336.899 240.4 338.299C230.9 339.699 228.2 344.599 212.7 346.099C202.7 347.099 196.1 346.799 196.1 346.799Z" fill="#CCCCCC"></path><path d="M200 350.099L195.2 347.199L212.9 293.399L213.3 293.299C213.3 293.299 213.3 293.299 220.7 291.199C227.4 289.399 240.2 278.699 251.8 278.699C252.4 278.699 253.1 278.699 253.6 278.799C265.5 280.099 269.4 287.799 269.5 287.899L268.8 288.299L269.5 287.899L269.6 288.099L268.8 350.199L200 350.099ZM197 346.399L200.4 348.399H267.1L267.9 288.399C267.6 287.999 266.8 286.499 264.9 284.899C262.6 282.999 259 280.899 253.4 280.299C252.8 280.199 252.3 280.199 251.7 280.199C241 280.199 228.4 290.499 221 292.599C216.4 293.899 214.6 294.399 214 294.499L197 346.399Z" fill="#241F20"></path><path d="M196.1 345.999C196.1 345.999 220.4 345.999 232.1 339.899C235.1 338.299 238.8 337.699 242.6 337.699C254.6 337.699 268.1 343.399 268.1 343.399L267.5 344.899C267.5 344.899 264.1 343.499 259.4 342.099C254.6 340.699 248.4 339.299 242.7 339.299C239.1 339.299 235.6 339.899 232.9 341.299C220.6 347.599 196.3 347.599 196.2 347.599L196.1 345.999Z" fill="#241F20"></path><path d="M268 287.099C268 287.099 270.8 280.699 282.3 279.499C293.9 278.299 307.5 289.799 314.9 291.899C322.3 293.999 322.3 293.999 322.3 293.999L339.6 346.799L335.5 349.299H267.8L268 287.099Z" fill="white"></path><path d="M340.1 346.799L336 349.299H268.3L268.5 344.199C268.5 344.199 286.4 336.899 295.9 338.299C305.4 339.699 308.1 344.599 323.6 346.099C333.6 347.199 340.1 346.799 340.1 346.799Z" fill="#CCCCCC"></path><path d="M267.1 350.099L267.2 287.199V286.999L267.3 286.799C267.3 286.599 270.4 279.999 282.2 278.699C282.8 278.599 283.4 278.599 284.1 278.599C295.7 278.699 308.4 289.299 315.2 291.099C322.6 293.099 322.6 293.099 322.6 293.099L323 293.199L340.6 346.999L335.8 349.899L267.1 350.099ZM268.7 348.499H335.4L338.8 346.499L321.8 294.699C321.2 294.499 319.4 293.999 314.8 292.699C307.4 290.599 294.9 280.199 284.2 280.299C283.6 280.299 283.1 280.299 282.5 280.399C276.8 280.999 273.4 282.799 271.4 284.499C269.7 285.899 269 286.999 268.9 287.399L268.7 348.499Z" fill="#241F20"></path><path d="M303 341.299C300.3 339.899 296.9 339.299 293.3 339.399C281.8 339.399 268.5 344.999 268.4 345.099L267.8 343.599C267.9 343.599 281.4 337.799 293.3 337.799C297 337.799 300.7 338.399 303.7 339.999C315.3 345.999 339.6 346.099 339.7 346.099V347.699C339.7 347.599 315.3 347.699 303 341.299Z" fill="#241F20"></path><path d="M158.7 248.999L176.6 272.499C176.6 272.499 191.3 269.399 198.3 263.999C205.3 258.599 206.6 255.199 206.6 255.199L190.3 236.099C190.3 236.099 187.2 241.299 179.2 244.599C175.2 246.299 158.7 248.999 158.7 248.999Z" fill="#FFCA05"></path><path d="M181.4 222.299L197.3 240.999C197.3 240.999 197 225.999 206.8 218.199C216.6 210.399 232.4 209.899 232.4 209.899L216.6 189.199C216.6 189.199 197.5 191.199 190.6 196.999C179.1 206.899 181.4 222.299 181.4 222.299Z" fill="#FFCA05"></path><path d="M178.1 274.099L185.9 283.899C185.9 283.899 200.4 281.199 207.4 275.899C215.9 269.499 219.8 263.999 219.8 263.999C219.8 263.999 214.1 263.299 213 262.499C212.8 262.299 208.1 256.999 208.1 256.999C208.1 256.999 202.7 264.299 197.5 267.399C192.3 270.499 178.1 274.099 178.1 274.099Z" fill="#005AA9"></path><path d="M186.9 285.299L193.4 293.799C193.4 293.799 209.4 291.299 219.3 283.699C233.5 272.799 228.9 262.199 228.9 262.199L221.1 263.999C221.1 263.999 215.9 270.999 208.4 276.399C200.5 282.199 186.9 285.299 186.9 285.299Z" fill="#EC1B23"></path><path d="M198 241.799L205 249.599C205 249.499 206.6 235.299 216.4 230.199C226.2 224.999 242.3 222.899 242.3 222.899L232.5 210.999C232.5 210.999 215 212.699 207.7 219.499C198.5 228.099 198 241.799 198 241.799Z" fill="#005AA9"></path><path d="M206.3 250.299L211.7 256.999C211.7 256.999 210.2 247.199 221.5 239.199C232.9 231.199 250.7 232.999 250.7 232.999L242.9 223.999C242.9 223.999 222.2 227.299 213.9 234.099C205.8 240.799 206.3 250.299 206.3 250.299Z" fill="#EC1B23"></path><path d="M217.1 248.699C217.1 248.699 215.6 249.799 214.7 253.699C214.1 256.399 214.1 260.399 214.1 260.399C214.1 260.399 217.1 261.599 221.3 261.499C225.5 261.299 227.8 259.399 227.8 259.399L217.1 248.699Z" fill="#EC1B23"></path><path d="M295.8 315.499C291.7 315.499 288.3 314.899 287.3 313.399L294.9 331.399C294.9 331.399 295.1 332.499 295.8 332.499C296.5 332.499 296.8 331.399 296.8 331.399L304.4 313.399C303.3 314.899 299.9 315.499 295.8 315.499Z" fill="#1068B2"></path><path d="M298.5 295.699C294.4 300.999 295.2 294.199 297.2 293.599C299.3 292.899 293.2 291.699 290.3 295.399C287 299.599 289.3 302.199 289.3 302.199C289.3 302.199 286.7 302.599 286.9 300.699C287 298.699 284.9 302.499 285.7 305.399C286.3 307.599 287.7 309.099 287.7 309.099C287.7 309.099 289.8 311.799 295.2 311.599C300.6 311.299 303.3 308.999 303.3 308.999C303.3 308.999 306.1 307.299 304.7 303.699C303.2 299.799 304.7 294.399 309.1 294.299C313.5 294.199 302.6 290.399 298.5 295.699ZM302.8 296.899C301.6 298.899 301.4 301.699 302.3 304.099C303.4 306.899 299.1 309.499 294.8 309.699C294.6 309.699 294.5 309.699 294.3 309.699C290.5 309.699 289.1 307.999 289 307.899C289 307.899 287.9 306.699 287.5 304.999C287.4 304.399 287.4 303.699 287.5 303.099C289.7 304.399 291.8 303.199 291.8 303.199C291.8 303.199 289.1 299.999 291.3 297.199C292.2 296.099 293.7 295.499 294.9 295.399C294.4 296.299 294.2 297.399 294.3 298.199C294.5 299.299 295.2 299.699 295.7 299.699C296.5 299.699 297.4 298.999 298.5 297.499C299.9 295.699 302.5 295.399 303.9 295.399C304.1 295.399 304.3 295.399 304.4 295.399C303.8 295.599 303.3 296.199 302.8 296.899Z" fill="#1068B2"></path><path d="M295.6 312.599C291.2 312.599 287.5 311.399 286.4 309.899C286.2 310.199 286.1 310.499 286.1 310.799C286.1 312.899 290.4 314.499 295.6 314.499C300.9 314.499 305.1 312.899 305.1 310.799C305.1 310.499 305 310.199 304.8 309.899C303.7 311.499 300 312.599 295.6 312.599Z" fill="#1068B2"></path><path d="M251.8 324.199C251.3 324.199 250.6 323.899 249.7 323.299L238.4 315.099L249.7 306.999C250.6 306.399 251.3 306.099 251.8 306.099C252.3 306.099 252.8 306.399 253.2 306.999L253.6 306.699L249.8 301.499L249.4 301.799C249.9 302.499 250 302.999 249.8 303.499C249.6 303.999 249.1 304.499 248.2 305.199L237.5 312.799V307.199C237.9 307.299 238.2 307.399 239 307.399C241.1 307.399 242.6 306.999 243.7 306.199C244.8 305.399 245.3 304.299 245.3 302.799C245.3 301.299 244.7 299.999 243.4 299.099C242.1 298.099 240.4 297.599 238.3 297.699H233V298.199C233.8 298.199 234.3 298.399 234.6 298.799C234.9 299.199 235 299.999 235 300.999V312.899L224.1 305.099C223.2 304.399 222.7 303.899 222.5 303.399C222.3 302.899 222.5 302.399 223 301.699L222.6 301.399L218.8 306.699L219.2 306.999C219.7 306.399 220.1 306.099 220.6 306.099C221.1 306.099 221.8 306.399 222.7 306.999L234 315.099L222.7 323.199C221.8 323.799 221.1 324.199 220.6 324.199C220.1 324.199 219.6 323.899 219.2 323.199L218.8 323.499L222.6 328.799L223 328.499C222.5 327.899 222.4 327.299 222.6 326.899C222.8 326.399 223.3 325.799 224.1 325.199L235 317.399V327.599C235 328.599 234.8 329.299 234.5 329.799C234.2 330.199 233.7 330.399 232.9 330.399V330.899H239.4V330.399C238.6 330.399 238.1 330.199 237.8 329.799C237.5 329.399 237.4 328.599 237.4 327.499V317.599L248.1 325.199C249 325.899 249.5 326.399 249.6 326.899C249.8 327.399 249.6 327.899 249.2 328.499L249.6 328.799L253.4 323.499L253 323.199C252.7 323.899 252.3 324.199 251.8 324.199ZM237.6 298.199H238.5C239.9 298.199 240.9 298.599 241.7 299.499C242.5 300.299 242.9 301.399 242.9 302.699C242.9 303.899 242.5 304.899 241.7 305.599C240.9 306.299 239.9 306.599 238.5 306.599C237.6 306.599 237.6 306.299 237.6 306.299V298.199Z" fill="#1068B2"></path><path d="M238 441.7C232.7 441.7 229.2 439.8 227.6 436.2C226.6 434 226.1 429.9 226.1 423.9C226.1 417.8 226.6 413.8 227.6 411.5C229.2 407.8 232.7 406 238 406C245 406 248.4 409.8 248.1 417.5H241C241 415.2 240.8 413.6 240.3 412.6C239.8 411.7 239.1 411.2 238 411.2C236.1 411.2 234.8 412.2 234.2 414.2C233.7 415.9 233.4 419.1 233.4 423.9C233.4 428.7 233.6 431.9 234.2 433.5C234.8 435.5 236.1 436.5 238 436.5C239.4 436.5 240.4 435.7 240.9 434C241.1 433.3 241.2 431.7 241.3 429.5H248.4C248.4 434 247.5 437.2 245.7 439.1C244.1 440.8 241.6 441.7 238 441.7Z" fill="#241F20"></path><path d="M257.1 441.1H250L259.6 406.5H269.1L278.5 441H270.9L269 433.4H259.1L257.1 441.1ZM267.4 428.1L263.9 413.2H263.8L260.5 428.1H267.4Z" fill="#241F20"></path><path d="M299.4 441.1H281.4V406.6H288.6V435.4H299.4V441.1Z" fill="#241F20"></path><path d="M309.3 441.1H302.1V406.6H309.3V441.1Z" fill="#241F20"></path></svg>